<?xml version="1.0" encoding="UTF-8"?>
<svg version="1.1" xmlns="http://www.w3.org/2000/svg" width="1536" height="1024">
<path d="M0 0 C506.88 0 1013.76 0 1536 0 C1536 337.92 1536 675.84 1536 1024 C1029.12 1024 522.24 1024 0 1024 C0 686.08 0 348.16 0 0 Z " fill="#FEFEFE" transform="translate(0,0)"/>
<path d="M0 0 C0.67015137 0.34740234 1.34030273 0.69480469 2.03076172 1.05273438 C2.81491455 1.4582251 3.59906738 1.86371582 4.40698242 2.28149414 C5.67094849 2.95716431 5.67094849 2.95716431 6.96044922 3.64648438 C8.30852661 4.35985962 8.30852661 4.35985962 9.68383789 5.08764648 C21.32637223 11.35201256 32.56269361 18.31286735 43.79980469 25.26953125 C46.23434428 26.7748184 48.67435578 28.26974597 51.12060547 29.75585938 C82.76829247 49.09634638 113.32540391 70.70848255 142.83544922 93.14648438 C143.47305176 93.63084961 144.1106543 94.11521484 144.76757812 94.61425781 C153.94746239 101.59311719 163.06675914 108.64347258 172.11621094 115.79052734 C174.50219546 117.67234473 176.89383322 119.54691665 179.28540039 121.42163086 C181.04086144 122.79899994 182.79388452 124.17941599 184.54638672 125.56054688 C186.66874756 127.23282299 188.79940782 128.89191332 190.93701172 130.54492188 C191.85224609 131.2590625 192.76748047 131.97320312 193.71044922 132.70898438 C194.51224609 133.32902344 195.31404297 133.9490625 196.14013672 134.58789062 C196.69958984 135.10222656 197.25904297 135.6165625 197.83544922 136.14648438 C197.83544922 136.80648437 197.83544922 137.46648437 197.83544922 138.14648438 C191.90996439 139.57495286 185.98344203 140.99900321 180.0559082 142.41894531 C178.03901403 142.90275314 176.02241025 143.38777321 174.00610352 143.87402344 C171.11012813 144.57219216 168.21314103 145.26601398 165.31591797 145.95898438 C164.41270309 146.17772217 163.50948822 146.39645996 162.5789032 146.62182617 C161.73825821 146.82203369 160.89761322 147.02224121 160.03149414 147.22851562 C159.29203049 147.40616455 158.55256683 147.58381348 157.79069519 147.7668457 C155.83544922 148.14648438 155.83544922 148.14648438 152.83544922 148.14648438 C152.83011211 153.18281249 152.86377159 158.21683076 152.93310547 163.25268555 C152.95123896 164.96451994 152.95883875 166.67650043 152.95556641 168.38842773 C152.95270138 170.8544965 152.98809022 173.31755261 153.03076172 175.78320312 C153.01712082 176.92567757 153.01712082 176.92567757 153.00320435 178.0912323 C153.08329152 181.03959867 153.20454087 183.41980071 155.18939209 185.70596313 C156.68023223 186.92705528 158.25517786 188.04357332 159.83544922 189.14648438 C161.39021611 192.25601817 161.12189358 194.70915198 160.83544922 198.14648438 C158.79914377 201.9281945 156.75069051 205.2417724 152.83544922 207.14648438 C148.09256568 207.88104186 144.73153005 207.5863786 140.39794922 205.45898438 C136.62041346 202.04998869 136.00436219 199.69485329 135.46044922 194.70898438 C135.90772361 190.45987769 137.1196708 188.40541847 139.83544922 185.14648438 C140.82544922 184.81648437 141.81544922 184.48648438 142.83544922 184.14648438 C142.83544922 173.25648438 142.83544922 162.36648438 142.83544922 151.14648438 C131.94544922 153.78648437 121.05544922 156.42648437 109.83544922 159.14648438 C109.83544922 173.99648438 109.83544922 188.84648437 109.83544922 204.14648438 C105.21544922 203.15648437 100.59544922 202.16648437 95.83544922 201.14648438 C91.92345689 200.85929446 88.23213655 200.6662084 84.33544922 200.70898438 C83.34496582 200.71655762 82.35448242 200.72413086 81.33398438 200.73193359 C72.44300532 200.93080121 64.05157926 202.05247051 56.25024414 206.67993164 C46.04201444 212.6092518 35.70841828 211.81581591 24.22903442 211.54144287 C19.55646676 211.4299604 14.88394355 211.38571416 10.21037292 211.33673096 C7.90516583 211.31159814 5.5999942 211.28295014 3.2948761 211.25067139 C-5.18467063 211.1333816 -13.62770936 211.19374741 -22.10205078 211.52148438 C-23.7064502 211.5761084 -23.7064502 211.5761084 -25.34326172 211.63183594 C-30.26930949 211.83650205 -35.08937641 212.22900993 -39.96923828 212.93945312 C-50.96467781 214.51132558 -57.21891854 214.32805838 -66.65673828 208.25976562 C-80.70123894 199.27965348 -101.98032077 199.15309514 -117.85205078 202.45898438 C-123.06003166 203.70969389 -128.10046822 205.41599075 -133.16455078 207.14648438 C-133.22267185 201.29563005 -133.21185974 195.44859434 -133.16796875 189.59765625 C-133.16490868 186.50785519 -133.20715609 183.42166952 -133.264328 180.33248901 C-133.3032074 177.64416879 -133.29836915 174.95689258 -133.28561401 172.26837158 C-133.28949301 170.30078716 -133.34395552 168.3335126 -133.39916992 166.36669922 C-133.30499748 157.47237557 -133.30499748 157.47237557 -130.28027344 153.95581055 C-127.66861614 152.07651309 -125.02927964 150.6092635 -122.16455078 149.14648438 C-120.26814954 148.01768196 -118.37498858 146.88342063 -116.48486328 145.74414062 C-114.42253179 144.56090935 -112.35729625 143.38272886 -110.28955078 142.20898438 C-109.18200439 141.57508789 -108.07445801 140.94119141 -106.93334961 140.28808594 C-103.96763077 138.59067898 -100.99867081 136.89902337 -98.0289917 135.20855713 C-94.18135794 133.01676497 -90.33776038 130.81790214 -86.49346924 128.62025452 C-83.41032203 126.85789534 -80.32662904 125.09651573 -77.24121094 123.33813477 C-76.12665527 122.70254639 -75.01209961 122.06695801 -73.86376953 121.41210938 C-72.88239014 120.85297852 -71.90101074 120.29384766 -70.88989258 119.71777344 C-68.29667052 118.22265768 -65.72619457 116.69496465 -63.16455078 115.14648438 C-95.46198078 124.38970957 -128.30921099 134.00118008 -158.77661133 148.37915039 C-163.75418499 149.9786304 -167.87212162 147.51931108 -172.39111328 145.41601562 C-172.97943939 145.14311203 -173.5677655 144.87020844 -174.17391968 144.58903503 C-175.41729385 144.01077859 -176.65943164 143.42985706 -177.90039062 142.84643555 C-179.76008623 141.97282563 -181.62399246 141.10879409 -183.48876953 140.24609375 C-190.8681198 136.8120475 -198.07588328 133.14785782 -205.16455078 129.14648438 C-201.84794073 124.93975472 -198.44414771 121.51218447 -194.16455078 118.27148438 C-193.27364746 117.58481689 -193.27364746 117.58481689 -192.36474609 116.88427734 C-191.0367976 115.86301055 -189.70624944 114.84511788 -188.37353516 113.83007812 C-185.98007318 112.00588341 -183.59563811 110.17024936 -181.21142578 108.33398438 C-161.98846046 93.56516453 -142.26813343 79.6895803 -122.16455078 66.14648438 C-120.74395812 65.18557607 -119.32338242 64.22464268 -117.90283203 63.26367188 C-92.80139212 46.34202152 -66.79271249 30.58155918 -40.31787109 15.91064453 C-37.36362652 14.25785951 -34.42528797 12.58041647 -31.49055481 10.89338684 C-28.85042731 9.37910051 -26.20247615 7.87884264 -23.55319214 6.38064575 C-22.26342674 5.64745543 -20.97682595 4.90866701 -19.69363403 4.16403198 C-17.89937073 3.12429087 -16.09438271 2.10609121 -14.28564453 1.09179688 C-13.24851318 0.49898926 -12.21138184 -0.09381836 -11.14282227 -0.70458984 C-6.92988074 -2.32981345 -4.11243667 -1.62159695 0 0 Z " fill="#000000" transform="translate(483.16455078125,238.853515625)"/>
<path d="M0 0 C1.00844971 0.00942627 2.01689941 0.01885254 3.0559082 0.02856445 C10.24833987 0.17440017 16.77665839 0.85685609 23.5625 3.375 C25.06103516 3.90287109 25.06103516 3.90287109 26.58984375 4.44140625 C33.67596006 7.14896393 39.62899756 10.670104 45.5625 15.375 C46.39652344 16.03242188 47.23054688 16.68984375 48.08984375 17.3671875 C62.85192867 29.78644539 70.49532655 46.88132306 74.5625 65.375 C74.5625 66.035 74.5625 66.695 74.5625 67.375 C87.1025 67.375 99.6425 67.375 112.5625 67.375 C112.8925 64.405 113.2225 61.435 113.5625 58.375 C118.7307058 38.48461434 129.7779924 20.9537511 147.62646484 10.17675781 C165.36563117 -0.12525466 185.72907219 -2.9886238 205.8125 1.9375 C218.7045892 6.11401484 228.18957222 12.8914772 237.5625 22.375 C238.23023438 23.03242188 238.89796875 23.68984375 239.5859375 24.3671875 C249.52498776 34.8459147 254.19230154 47.61938309 257.5625 61.375 C257.86607422 62.5815625 257.86607422 62.5815625 258.17578125 63.8125 C261.41743324 85.29253744 255.68374478 107.07258599 242.8984375 124.4453125 C229.27180556 141.53556996 210.99948794 150.48839098 189.5625 153.375 C172.43229322 155.19789372 154.36169064 148.76709696 140.9375 138.3125 C139.46110867 137.02034637 138.00071709 135.70951263 136.5625 134.375 C135.65177734 133.59962891 135.65177734 133.59962891 134.72265625 132.80859375 C122.70562552 121.93604214 115.35954797 105.04301668 112.5625 89.375 C112.5625 87.725 112.5625 86.075 112.5625 84.375 C100.0225 84.375 87.4825 84.375 74.5625 84.375 C73.9025 88.665 73.2425 92.955 72.5625 97.375 C67.32147693 117.0239292 55.55163414 133.27311095 37.99609375 143.5078125 C19.52937535 153.55000976 0.77673838 155.62894377 -19.4375 150.375 C-38.1004327 144.48848359 -53.71448799 131.07434134 -62.7890625 113.86328125 C-71.92963449 94.52079123 -75.47121676 72.52212264 -68.75390625 51.71484375 C-60.34198659 30.37302978 -47.38881066 15.02621059 -26.58984375 5.06640625 C-17.84913364 1.29071224 -9.48476988 -0.13806186 0 0 Z " fill="#0166C3" transform="translate(382.4375,450.625)"/>
<path d="M0 0 C13.254301 9.56861302 22.45365156 23.38740731 25.60546875 39.515625 C27.72030979 56.85209966 24.45283701 73.95582043 13.7109375 88 C11.53525246 90.48013243 9.28798095 92.81148111 6.921875 95.109375 C6.11169922 95.95048828 6.11169922 95.95048828 5.28515625 96.80859375 C-5.37872601 107.04269738 -19.50109335 110.53794859 -33.78540039 110.47290039 C-48.20454638 110.15947098 -60.79592081 104.33941294 -71.328125 94.546875 C-84.83848263 80.27506404 -88.60956881 63.74278694 -88.35546875 44.65234375 C-87.83137822 29.18254722 -80.18443388 15.62262855 -69.078125 5.109375 C-48.72437276 -11.78621546 -22.51641014 -13.93873008 0 0 Z " fill="#FDFEFE" transform="translate(599.078125,476.890625)"/>
<path d="M0 0 C1.49853516 0.72896484 1.49853516 0.72896484 3.02734375 1.47265625 C17.66937775 9.28297199 27.70741761 22.10515984 32.52734375 37.9375 C36.42144989 54.92996317 34.06752279 71.64789681 25.8828125 87.05078125 C17.1065272 100.79786715 4.72922426 109.0988192 -10.87475586 113.53271484 C-20.71164398 115.6955872 -33.86803066 115.26968949 -43 111 C-44.54880859 110.28650391 -44.54880859 110.28650391 -46.12890625 109.55859375 C-62.56276781 101.35118433 -72.04077505 89.22588461 -78 72 C-82.67347082 56.71385587 -80.483552 39.46464404 -73.4375 25.25 C-67.22135492 14.8793459 -58.74056201 6.56260512 -48 1 C-47.08476562 0.4946875 -46.16953125 -0.010625 -45.2265625 -0.53125 C-31.98434036 -6.78741794 -13.05079083 -6.55457006 0 0 Z " fill="#FCFDFD" transform="translate(407,473)"/>
<path d="M0 0 C2.5912897 1.21429041 5.17208875 2.44537494 7.75 3.6875 C8.47960937 4.02716797 9.20921875 4.36683594 9.9609375 4.71679688 C17.11840791 8.19793021 19.98237251 12.73607159 23.75 19.6875 C27.26606109 25.9958 31.24789313 31.54320808 36 37 C36.69867188 37.81984375 37.39734375 38.6396875 38.1171875 39.484375 C59.65938559 64.16974078 91.64732125 82.7155507 124.67626953 85.84326172 C137.97952872 86.74058179 151.96251421 87.03518188 165 84 C166.77117187 83.5978125 166.77117187 83.5978125 168.578125 83.1875 C193.74678932 76.97301498 216.90471767 64.65635359 235 46 C235.78375 45.236875 236.5675 44.47375 237.375 43.6875 C238.24125 42.800625 239.1075 41.91375 240 41 C240.96873047 40.02546875 240.96873047 40.02546875 241.95703125 39.03125 C247.86087434 32.82756199 252.25982559 26.13578276 256.640625 18.83203125 C257.42550411 17.55371652 258.21193812 16.27635506 259 15 C259.36826904 14.37649658 259.73653809 13.75299316 260.1159668 13.1105957 C263.30957647 8.10165692 266.95922155 5.95927614 272.3125 3.5625 C273.05306641 3.21251953 273.79363281 2.86253906 274.55664062 2.50195312 C276.36324521 1.65110064 278.1805911 0.82311684 280 0 C278.06625327 6.41821109 275.58579932 12.27454087 272.4375 18.1875 C271.77995728 19.42415405 271.77995728 19.42415405 271.10913086 20.68579102 C264.3044124 33.21721664 255.86652361 43.76750741 246 54 C245.29617188 54.76699219 244.59234375 55.53398438 243.8671875 56.32421875 C223.22192774 78.18621435 193.97835795 91.5915883 165 98 C163.94296875 98.24621094 162.8859375 98.49242187 161.796875 98.74609375 C127.03235582 105.48520509 89.2019948 95.17504447 60 76 C33.1589225 57.6701655 9.12244294 31.92855028 0 0 Z " fill="#030303" transform="translate(336,598)"/>
<path d="M0 0 C5.28 0 10.56 0 16 0 C22.65091382 19.13556433 28.29849063 38.56592283 34 58 C36.86128322 51.09949531 39.35458671 44.14261162 41.63671875 37.03125 C41.96162796 36.02912476 42.28653717 35.02699951 42.62129211 33.99450684 C43.64658868 30.83070457 44.66734077 27.66546213 45.6875 24.5 C46.71902437 21.30619103 47.75153391 18.1127081 48.7858429 14.9197998 C49.42643798 12.94161254 50.06531907 10.96286925 50.70231628 8.98352051 C50.98964127 8.0949939 51.27696625 7.20646729 51.57299805 6.29101562 C51.825186 5.50843384 52.07737396 4.72585205 52.33720398 3.91955566 C53 2 53 2 54 0 C57.63 0 61.26 0 65 0 C74.5 28.5 74.5 28.5 84 57 C85.62591289 53.96729367 86.7077613 50.974129 87.69580078 47.68066406 C88.01598175 46.61986633 88.33616272 45.5590686 88.66604614 44.46612549 C89.00570404 43.32746033 89.34536194 42.18879517 89.6953125 41.015625 C90.04761932 39.84489441 90.39992615 38.67416382 90.76290894 37.46795654 C91.88701878 33.729653 93.00606733 29.98985604 94.125 26.25 C94.88638583 23.71474374 95.64810058 21.17958624 96.41015625 18.64453125 C98.27725567 12.43082686 100.13981739 6.21577839 102 0 C106.95 0 111.9 0 117 0 C110.47545191 20.66477489 103.92618246 41.321137 97.25 61.9375 C96.99029419 62.74126068 96.73058838 63.54502136 96.4630127 64.37313843 C95.73230984 66.63344864 94.9993848 68.89302432 94.265625 71.15234375 C94.0495459 71.82126648 93.8334668 72.49018921 93.61083984 73.17938232 C92.8460934 75.52641893 92.10569954 77.78860092 91 80 C86.71 80 82.42 80 78 80 C72.06 62.18 66.12 44.36 60 26 C58.22864727 28.65702909 57.32903386 30.616126 56.32006836 33.59155273 C55.84463844 34.98330971 55.84463844 34.98330971 55.35960388 36.40318298 C55.02308304 37.40321854 54.68656219 38.40325409 54.33984375 39.43359375 C53.81494102 40.97781761 53.81494102 40.97781761 53.2794342 42.55323792 C52.54027151 44.73051431 51.80321894 46.90850804 51.06811523 49.0871582 C49.94262104 52.42232487 48.81075943 55.75527575 47.67773438 59.08789062 C46.96056267 61.20299794 46.24375364 63.31822828 45.52734375 65.43359375 C45.18879868 66.43160507 44.8502536 67.42961639 44.50144958 68.45787048 C44.18764847 69.38886063 43.87384735 70.31985077 43.55053711 71.27905273 C43.27455185 72.09607162 42.99856659 72.91309052 42.71421814 73.75486755 C42.05980796 75.8119947 41.52356385 77.9057446 41 80 C36.71 80 32.42 80 28 80 C24.68763599 72.23030162 21.67438472 64.46361524 19.00390625 56.453125 C18.64787827 55.3982489 18.29185028 54.3433728 17.92503357 53.25653076 C16.80016702 49.92235848 15.68084172 46.58636593 14.5625 43.25 C13.0879859 38.85824017 11.61034475 34.467554 10.12890625 30.078125 C9.5982103 28.50399841 9.5982103 28.50399841 9.05679321 26.89807129 C6.74117674 20.07058493 4.31684987 13.29599386 1.69740295 6.57891846 C0 2.19564427 0 2.19564427 0 0 Z " fill="#030303" transform="translate(1054,492)"/>
<path d="M0 0 C0.75539063 -0.00386719 1.51078125 -0.00773437 2.2890625 -0.01171875 C6.20085931 -0.00487994 9.80521219 0.16624848 13.625 1.125 C13.625 1.785 13.625 2.445 13.625 3.125 C12.67625 3.888125 11.7275 4.65125 10.75 5.4375 C7.87290333 7.77174824 6.48726904 9.41724313 5.625 13.125 C5.17780936 18.75960206 5.42778984 22.27406044 8.625 27.125 C13.62092866 31.74623401 17.52827449 32.40919148 24.1171875 32.3515625 C28.72756524 31.93504862 31.86823143 29.62951238 35.625 27.125 C38.59424137 33.06348275 37.33752868 43.85958287 35.94140625 50.2578125 C32.12524733 60.3603411 24.82714983 68.89060978 15 73.4375 C6.43814671 77.10024229 -3.22229319 77.47193515 -12.0625 74.5625 C-22.45425174 70.27122986 -29.70010344 62.94559838 -34.47265625 52.7890625 C-38.03833896 42.80515092 -37.75237751 31.28785945 -33.63671875 21.5546875 C-26.68856379 8.17464915 -15.15120613 -0.07677976 0 0 Z " fill="#010101" transform="translate(384.375,489.875)"/>
<path d="M0 0 C2.11372405 1.57824729 4.03719091 3.22868448 6 5 C6.33 2.69 6.66 0.38 7 -2 C11.29 -2 15.58 -2 20 -2 C20 16.48 20 34.96 20 54 C15.71 54 11.42 54 7 54 C6.67 52.35 6.34 50.7 6 49 C5.360625 49.598125 4.72125 50.19625 4.0625 50.8125 C-2.18971272 55.27836623 -9.36530993 57.1310652 -17 56 C-24.89533666 53.93393059 -31.85628295 49.87503948 -36.34765625 42.91015625 C-40.7568787 34.42358831 -41.73388947 24.33504008 -39.19921875 15.07421875 C-35.795072 7.55234122 -29.71942152 1.35277336 -22.125 -2 C-14.60498641 -4.3115411 -6.85291255 -3.89675419 0 0 Z " fill="#030303" transform="translate(863,518)"/>
<path d="M0 0 C2.52072343 1.66462868 4.28139365 3.04594073 6.3125 5.1875 C6.6425 3.2075 6.9725 1.2275 7.3125 -0.8125 C11.6025 -0.8125 15.8925 -0.8125 20.3125 -0.8125 C20.3125 17.3375 20.3125 35.4875 20.3125 54.1875 C16.3525 54.1875 12.3925 54.1875 8.3125 54.1875 C7.8175 51.2175 7.8175 51.2175 7.3125 48.1875 C6.508125 49.0846875 6.508125 49.0846875 5.6875 50 C-0.08137258 55.31343527 -6.79574506 56.58646368 -14.4765625 56.46875 C-21.55144154 55.56876539 -27.76226341 52.22727698 -32.6875 47.1875 C-38.6903319 39.26175538 -40.77371409 31.06939891 -39.6875 21.1875 C-37.44858575 12.39341413 -34.41735072 6.7441024 -26.625 1.9375 C-18.73609116 -2.66535207 -8.50076812 -4.15522621 0 0 Z " fill="#020202" transform="translate(875.6875,620.8125)"/>
<path d="M0 0 C1.94921875 1.4375 1.94921875 1.4375 3.3125 3 C3.3125 7 3.3125 7 1.5625 9.140625 C0.44875 10.18476562 0.44875 10.18476562 -0.6875 11.25 C-1.43 11.95640625 -2.1725 12.6628125 -2.9375 13.390625 C-3.80375 14.18726563 -3.80375 14.18726563 -4.6875 15 C-5.26757812 14.59007812 -5.84765625 14.18015625 -6.4453125 13.7578125 C-14.49983764 8.20205093 -20.81712543 6.01736241 -30.6875 7 C-34.13878672 8.33207558 -36.09746081 9.40996081 -38.6875 12 C-39.11421657 15.84044909 -39.32308899 18.09550797 -37.0625 21.3125 C-32.08099797 24.85198829 -26.27012517 25.47208986 -20.375 26.375 C-10.67706578 27.98838077 -1.60609316 30.42655307 4.56640625 38.67578125 C8.38724715 45.10597691 8.16944824 52.09958723 6.91015625 59.30078125 C5.18467706 65.10876676 1.23995638 68.67683175 -3.6875 72 C-14.42874604 77.48104705 -28.1452734 77.57690191 -39.5625 74.4375 C-45.39463775 72.40955568 -50.5010949 69.60791957 -54.6875 65 C-55.3475 63.35 -56.0075 61.7 -56.6875 60 C-54.0475 57.36 -51.4075 54.72 -48.6875 52 C-44.6875 54 -44.6875 54 -42.375 55.9375 C-34.64580911 61.86920463 -27.2247695 61.77245703 -17.6875 61 C-13.14332676 60.02624859 -10.35233967 58.99725951 -7.6875 55 C-7.40964568 53.04620501 -7.40964568 53.04620501 -7.5 51 C-7.50966797 49.9790625 -7.50966797 49.9790625 -7.51953125 48.9375 C-7.63052254 46.78241791 -7.63052254 46.78241791 -8.6875 44 C-11.11314119 43.17009509 -13.38386319 42.54868077 -15.875 42 C-16.59316895 41.82903809 -17.31133789 41.65807617 -18.05126953 41.48193359 C-21.52710186 40.66557588 -25.00067081 39.9417803 -28.51171875 39.2890625 C-36.62650253 37.77144617 -44.70663605 35.90442439 -50.15234375 29.1953125 C-53.79989763 23.14634415 -54.41615905 16.91185156 -53.6875 10 C-51.64962156 3.02701836 -47.06906825 -1.50833565 -40.8671875 -5.03515625 C-27.85377095 -10.5212044 -11.30291438 -7.74495351 0 0 Z " fill="#030303" transform="translate(746.6875,601)"/>
<path d="M0 0 C7.42318481 4.48192291 10.94520339 11.78081354 13 20 C13 23.3 13 26.6 13 30 C-1.52 30.33 -16.04 30.66 -31 31 C-28.38480407 36.72027392 -28.38480407 36.72027392 -24 40 C-18.2874147 41.9041951 -11.17990357 42.1254991 -5.47265625 40.10546875 C-3.61710399 39.12758925 -1.80442381 38.06928818 0 37 C3 37 3 37 4.60546875 38.3125 C5.12753906 38.869375 5.64960937 39.42625 6.1875 40 C6.98220703 40.8353125 6.98220703 40.8353125 7.79296875 41.6875 C8.39044922 42.3371875 8.39044922 42.3371875 9 43 C7.47296731 47.12298827 4.71060278 49.78691683 1 52 C-9.64823959 56.09672729 -19.32455875 55.84545465 -30 52 C-38.47363399 47.21294703 -43.40007204 40.31198689 -46 31 C-47.23466079 22.33268124 -45.33103003 15.03630535 -40.52734375 7.7734375 C-30.3379279 -5.08979669 -14.21533279 -7.08552413 0 0 Z " fill="#050505" transform="translate(800,519)"/>
<path d="M0 0 C3.96 0 7.92 0 12 0 C9.99107143 12.32142857 9.99107143 12.32142857 9 16 C25.37220404 26.7615049 40.47349123 35.18941496 60.953125 31.30859375 C72.99036768 28.71801034 83.47705463 23.89844293 93 16 C92.7834375 14.89591797 92.7834375 14.89591797 92.5625 13.76953125 C92.376875 12.79371094 92.19125 11.81789063 92 10.8125 C91.814375 9.84957031 91.62875 8.88664063 91.4375 7.89453125 C91 5 91 5 91 0 C94.96 0 98.92 0 103 0 C103.5878125 2.2584375 103.5878125 2.2584375 104.1875 4.5625 C106.72655358 12.92366249 110.74289039 17.30422319 118 22 C116.68 25.96 115.36 29.92 114 34 C109.13430402 32.05372161 106.13255363 30.07915761 102 27 C98.47095481 28.65423993 95.27869937 30.71107872 92 32.8125 C74.95964199 43.43627851 55.70868444 48.02565932 35.85107422 43.96948242 C23.21571993 40.96753205 11.42946696 34.64827577 1 27 C0.30132812 27.5053125 -0.39734375 28.010625 -1.1171875 28.53125 C-2.02726562 29.1809375 -2.93734375 29.830625 -3.875 30.5 C-4.77992188 31.1496875 -5.68484375 31.799375 -6.6171875 32.46875 C-9 34 -9 34 -11 34 C-12.32 30.04 -13.64 26.08 -15 22 C-13.80375 21.2575 -12.6075 20.515 -11.375 19.75 C-4.95751838 14.98533336 -1.89785886 7.59143543 0 0 Z " fill="#030303" transform="translate(424,602)"/>
<path d="M0 0 C4.29 0 8.58 0 13 0 C13.33 9.9 13.66 19.8 14 30 C16.97 27.525 16.97 27.525 20 25 C24.89037734 22.29742305 29.96091511 22.34067311 35.3046875 23.5 C41.11914399 25.22280192 45.90264472 27.62540913 49.21875 32.9609375 C52.47775048 39.22287413 53.14377551 44.43699167 53.09765625 51.484375 C53.0962413 52.29996887 53.09482635 53.11556274 53.09336853 53.95587158 C53.08778303 56.55395212 53.07523321 59.15194563 53.0625 61.75 C53.05748312 63.51432167 53.05292054 65.27864469 53.04882812 67.04296875 C53.03781835 71.36201256 53.02056369 75.68099154 53 80 C48.38 80 43.76 80 39 80 C38.98541748 78.97116699 38.97083496 77.94233398 38.95581055 76.88232422 C38.89761343 73.04653053 38.82038297 69.21131078 38.73754883 65.37597656 C38.70439982 63.71949616 38.67633691 62.06290554 38.65356445 60.40625 C38.61983268 58.01775366 38.56751041 55.63025829 38.51171875 53.2421875 C38.50213387 52.14026566 38.50213387 52.14026566 38.49235535 51.01608276 C38.35919974 46.30533485 37.5500175 42.97646265 35 39 C31.21308471 36.74241588 28.78661538 35.98643767 24.375 36.0625 C20.61189565 37.10780676 18.71411418 38.20833971 16 41 C13.81797739 45.21394124 13.66078624 49.27396801 13.5859375 53.92578125 C13.56657135 54.67337204 13.5472052 55.42096283 13.5272522 56.19120789 C13.46776082 58.56485806 13.42119408 60.93855754 13.375 63.3125 C13.33679211 64.92775482 13.29773875 66.54298987 13.2578125 68.15820312 C13.1620847 72.1053071 13.07794233 76.05250639 13 80 C8.71 80 4.42 80 0 80 C0 53.6 0 27.2 0 0 Z " fill="#020202" transform="translate(1253,492)"/>
<path d="M0 0 C4.29 0 8.58 0 13 0 C13.33 9.9 13.66 19.8 14 30 C16.31 28.35 18.62 26.7 21 25 C27.34377263 22.88540912 35.36151571 22.79636766 41.5 25.625 C47.82358269 29.43246242 51.08166398 34.99705297 53 42 C53.36288276 45.0436594 53.35298321 48.03209513 53.29296875 51.09375 C53.28872391 51.92588013 53.28447906 52.75801025 53.28010559 53.61535645 C53.26346307 56.24391593 53.22583976 58.87167667 53.1875 61.5 C53.17243444 63.29425967 53.15874933 65.0885315 53.14648438 66.8828125 C53.11360714 71.25551083 53.06192722 75.62762053 53 80 C48.71 80 44.42 80 40 80 C39.98541748 79.00145996 39.97083496 78.00291992 39.95581055 76.97412109 C39.89759932 73.25013394 39.82036923 69.52673708 39.73754883 65.80322266 C39.70440637 64.1952476 39.67634146 62.58715919 39.65356445 60.97900391 C39.61982033 58.65999295 39.56749806 56.34201069 39.51171875 54.0234375 C39.50532883 53.31069672 39.4989389 52.59795593 39.49235535 51.86361694 C39.33149273 46.33536078 38.1145408 42.08376786 34.12109375 38.1484375 C30.25726844 36.05642159 26.26545517 36.5014403 22 37 C18.46767871 38.3528039 17.36663051 39.39946809 15.40307617 42.61572266 C13.79358123 46.49789054 13.52534591 49.88919397 13.48828125 54.0234375 C13.47033005 54.76961334 13.45237885 55.51578918 13.43388367 56.28457642 C13.38006895 58.6479949 13.34597933 61.01121486 13.3125 63.375 C13.27930128 64.98570454 13.24480928 66.59638298 13.20898438 68.20703125 C13.12435982 72.13787687 13.05741257 76.06866659 13 80 C8.71 80 4.42 80 0 80 C0 53.6 0 27.2 0 0 Z " fill="#000001" transform="translate(770,595)"/>
<path d="M0 0 C6.53868601 4.16210146 9.27378257 9.98525341 11.07421875 17.3203125 C11.42245888 20.32582554 11.42852995 23.27067095 11.3671875 26.29296875 C11.36294266 27.10148788 11.35869781 27.91000702 11.35432434 28.74302673 C11.3377191 31.28998123 11.30010408 33.8361029 11.26171875 36.3828125 C11.24664833 38.12433742 11.23296409 39.86587491 11.22070312 41.60742188 C11.18787559 45.84536611 11.1362233 50.08269882 11.07421875 54.3203125 C6.78421875 54.3203125 2.49421875 54.3203125 -1.92578125 54.3203125 C-1.94036377 53.32177246 -1.95494629 52.32323242 -1.9699707 51.29443359 C-2.02818193 47.57044644 -2.10541202 43.84704958 -2.18823242 40.12353516 C-2.22137488 38.5155601 -2.24943979 36.90747169 -2.2722168 35.29931641 C-2.30596092 32.98030545 -2.35828319 30.66232319 -2.4140625 28.34375 C-2.42045242 27.63100922 -2.42684235 26.91826843 -2.4334259 26.18392944 C-2.59286598 20.70456103 -3.82314139 16.49804664 -7.67578125 12.5078125 C-12.1592201 10.14155311 -15.74305357 10.01961902 -20.61328125 11.2578125 C-24.89046234 13.92096299 -26.52496636 16.59676967 -27.92578125 21.3203125 C-28.54725499 26.98595221 -28.62373438 32.62541614 -28.67578125 38.3203125 C-28.70397808 39.87373069 -28.73391063 41.42711839 -28.765625 42.98046875 C-28.83905197 46.76036159 -28.88889291 50.53989372 -28.92578125 54.3203125 C-33.21578125 54.3203125 -37.50578125 54.3203125 -41.92578125 54.3203125 C-41.92578125 35.8403125 -41.92578125 17.3603125 -41.92578125 -1.6796875 C-37.63578125 -1.6796875 -33.34578125 -1.6796875 -28.92578125 -1.6796875 C-28.92578125 0.3003125 -28.92578125 2.2803125 -28.92578125 4.3203125 C-28.59578125 3.9903125 -28.26578125 3.6603125 -27.92578125 3.3203125 C-18.96423896 -3.14033427 -10.09287275 -5.03762933 0 0 Z " fill="#020202" transform="translate(992.92578125,517.6796875)"/>
<path d="M0 0 C4.62 0 9.24 0 14 0 C14 22.11 14 44.22 14 67 C27.53 67 41.06 67 55 67 C55 71.29 55 75.58 55 80 C36.85 80 18.7 80 0 80 C0 53.6 0 27.2 0 0 Z " fill="#020202" transform="translate(692,492)"/>
<path d="M0 0 C-0.28127421 1.48117801 -0.57533732 2.95993249 -0.875 4.4375 C-1.03742188 5.26121094 -1.19984375 6.08492187 -1.3671875 6.93359375 C-1.57601563 7.61550781 -1.78484375 8.29742188 -2 9 C-2.66 9.33 -3.32 9.66 -4 10 C-4.66 9.67 -5.32 9.34 -6 9 C-11.60703213 8.78622279 -11.60703213 8.78622279 -17 10 C-17.66 13.96 -18.32 17.92 -19 22 C-13.72 22 -8.44 22 -3 22 C-3 25.96 -3 29.92 -3 34 C-8.28 34 -13.56 34 -19 34 C-19 48.19 -19 62.38 -19 77 C-23.62 77 -28.24 77 -33 77 C-33 62.81 -33 48.62 -33 34 C-36.3 34 -39.6 34 -43 34 C-43 30.04 -43 26.08 -43 22 C-39.7 22 -36.4 22 -33 22 C-33.12375 20.6078125 -33.12375 20.6078125 -33.25 19.1875 C-33.21285713 13.09606894 -31.28348208 6.72719186 -27.3515625 2.03125 C-18.44317345 -5.90460749 -10.10838077 -5.24138262 0 0 Z " fill="#040404" transform="translate(1031,598)"/>
<path d="M0 0 C0 4.95 0 9.9 0 15 C4.95 15 9.9 15 15 15 C15 18.96 15 22.92 15 27 C10.05 27 5.1 27 0 27 C0.11995169 30.93288412 0.2426272 34.86553463 0.37231445 38.7980957 C0.43687006 40.79303319 0.4967783 42.78811929 0.55664062 44.78320312 C0.59853516 46.03681641 0.64042969 47.29042969 0.68359375 48.58203125 C0.72025146 49.73936768 0.75690918 50.8967041 0.79467773 52.08911133 C0.88328509 55.0643446 0.88328509 55.0643446 2 58 C3.43739513 58.02712066 4.87493863 58.04645067 6.3125 58.0625 C7.11300781 58.07410156 7.91351562 58.08570313 8.73828125 58.09765625 C11.16861334 58.09657855 11.16861334 58.09657855 14 57 C14.99 60.63 15.98 64.26 17 68 C11.19400043 71.37803611 6.74251529 73.13161096 0 72 C-5.91966957 70.29649796 -9.01147337 67.34653862 -12.08984375 62.09765625 C-14.03507658 57.61443724 -14.11973444 53.22184271 -14.09765625 48.38671875 C-14.09443359 47.13955078 -14.09121094 45.89238281 -14.08789062 44.60742188 C-14.07532227 42.66706055 -14.07532227 42.66706055 -14.0625 40.6875 C-14.05573242 38.71813477 -14.05573242 38.71813477 -14.04882812 36.70898438 C-14.03705949 33.4726099 -14.0206176 30.23632822 -14 27 C-16.97 27 -19.94 27 -23 27 C-23 23.04 -23 19.08 -23 15 C-20.03 15 -17.06 15 -14 15 C-14 10.38 -14 5.76 -14 1 C-9.17893703 0.3350258 -4.91832841 0 0 0 Z " fill="#050505" transform="translate(1227,501)"/>
<path d="M0 0 C3.77378999 1.41565474 7.19690291 3.14142924 10.69921875 5.1328125 C11.81337158 5.76622559 12.92752441 6.39963867 14.07543945 7.05224609 C15.27973054 7.74269175 16.48374393 8.43362199 17.6875 9.125 C18.3010434 9.47637024 18.91458679 9.82774048 19.54672241 10.1897583 C38.08681966 20.81929815 56.37529187 31.90422626 74 44 C75.32148049 44.89993652 76.64310057 45.79966809 77.96484375 46.69921875 C81.99066518 49.44595556 85.99970164 52.21624482 90 55 C90.57008789 55.39622559 91.14017578 55.79245117 91.72753906 56.20068359 C107.32618972 67.08292808 122.36426058 78.78645175 137.25390625 90.61425781 C139.22876729 92.18155525 141.20834657 93.7428146 143.1875 95.3046875 C144.58359697 96.41112576 145.97943587 97.51788974 147.375 98.625 C148.03677246 99.14674805 148.69854492 99.66849609 149.38037109 100.20605469 C150.9390233 101.44748853 152.47238437 102.72056842 154 104 C154 104.33 154 104.66 154 105 C149.64119125 105.59671677 145.28129469 106.1844586 140.92016602 106.76391602 C139.43676145 106.96229806 137.95368214 107.16312818 136.47094727 107.36645508 C134.33951313 107.65830528 132.20706404 107.94132892 130.07421875 108.22265625 C128.79119873 108.39547119 127.50817871 108.56828613 126.1862793 108.74633789 C123 109 123 109 120 108 C125.61 106.02 131.22 104.04 137 102 C128.54838902 93.83010938 119.20175708 87.38054605 109.53222656 80.74462891 C105.77012808 78.15265477 102.04038358 75.51583866 98.3125 72.875 C96.92197263 71.89178899 95.53134805 70.90871546 94.140625 69.92578125 C93.11678711 69.20189209 93.11678711 69.20189209 92.07226562 68.46337891 C89.9822021 66.9874316 87.88986911 65.51475678 85.796875 64.04296875 C77.66470887 58.32116765 69.57393209 52.5462253 61.51977539 46.71508789 C57.02452383 43.46057844 52.51955951 40.22065427 48 37 C46.28556773 35.77572558 44.57144451 34.55101971 42.85742188 33.32617188 C41.55212604 32.39420987 40.24606808 31.46331481 38.93945312 30.53320312 C30.24083708 24.33553689 21.6349321 18.03715659 13.1875 11.5 C12.44081055 10.92475586 11.69412109 10.34951172 10.92480469 9.75683594 C7.01777494 6.7088874 3.41309676 3.59414511 0 0 Z " fill="#F8F8F8" transform="translate(494,266)"/>
<path d="M0 0 C-1.0681847 5.11365014 -2.23107476 10.07227969 -4 15 C-4.928125 14.01 -4.928125 14.01 -5.875 13 C-10.1773726 10.24648154 -14.00465386 10.30146379 -19 11 C-22.07922685 11.94134743 -22.87270207 12.79370442 -24.58544922 15.56933594 C-26.22140609 19.53696899 -26.47499061 23.01975402 -26.51171875 27.2421875 C-26.52966995 28.01055939 -26.54762115 28.77893127 -26.56611633 29.57058716 C-26.61994958 32.00533695 -26.65402692 34.4398938 -26.6875 36.875 C-26.72069705 38.53388086 -26.75518891 40.19273635 -26.79101562 41.8515625 C-26.87565991 45.90090182 -26.94259857 49.95018661 -27 54 C-31.62 54 -36.24 54 -41 54 C-41 35.52 -41 17.04 -41 -2 C-36.71 -2 -32.42 -2 -28 -2 C-27.67 -0.02 -27.34 1.96 -27 4 C-26.113125 3.21625 -25.22625 2.4325 -24.3125 1.625 C-16.40925542 -4.87813598 -8.87621861 -3.80409369 0 0 Z " fill="#090909" transform="translate(941,518)"/>
<path d="M0 0 C0.928125 0.495 1.85625 0.99 2.8125 1.5 C2.35886829 3.08468677 1.89938548 4.66769924 1.4375 6.25 C1.05464844 7.57257812 1.05464844 7.57257812 0.6640625 8.921875 C-0.1084934 11.26080572 -1.02375676 13.33442562 -2.1875 15.5 C-2.620625 15.025625 -3.05375 14.55125 -3.5 14.0625 C-6.04801326 11.70322846 -8.14099703 11.50344466 -11.5625 11.25 C-15.48822665 11.52073977 -17.15088466 12.05383764 -20.1875 14.5 C-23.98109337 19.78393362 -24.32014538 24.26649605 -24.50390625 30.671875 C-24.52468735 31.3542926 -24.54546844 32.03671021 -24.56687927 32.73980713 C-24.63202052 34.90977356 -24.69109404 37.07985624 -24.75 39.25 C-24.79321897 40.72527221 -24.83683432 42.20053287 -24.88085938 43.67578125 C-24.98766518 47.28373166 -25.08903153 50.89181133 -25.1875 54.5 C-29.4775 54.5 -33.7675 54.5 -38.1875 54.5 C-38.1875 36.35 -38.1875 18.2 -38.1875 -0.5 C-34.2275 -0.5 -30.2675 -0.5 -26.1875 -0.5 C-25.8575 1.48 -25.5275 3.46 -25.1875 5.5 C-24.71699219 5.07847656 -24.24648438 4.65695312 -23.76171875 4.22265625 C-23.13910156 3.67480469 -22.51648438 3.12695312 -21.875 2.5625 C-21.26011719 2.01722656 -20.64523437 1.47195313 -20.01171875 0.91015625 C-14.72890606 -3.17355977 -5.88686545 -2.55217889 0 0 Z " fill="#010101" transform="translate(952.1875,620.5)"/>
<path d="M0 0 C-0.11487748 1.58409994 -0.24234508 3.16728963 -0.375 4.75 C-0.44460938 5.63171875 -0.51421875 6.5134375 -0.5859375 7.421875 C-0.99850055 9.99066382 -1.71160957 11.75841015 -3 14 C-4.05058594 13.44570313 -5.10117187 12.89140625 -6.18359375 12.3203125 C-7.60128132 11.58799707 -9.01926621 10.85625703 -10.4375 10.125 C-11.12521484 9.76019531 -11.81292969 9.39539063 -12.52148438 9.01953125 C-25.17473438 2.54577543 -41.38350588 1.67819011 -55 5.625 C-61.24965157 7.87844116 -67.16181672 10.84422525 -73 14 C-74.34911472 9.10945915 -75.11704968 5.10629224 -75 0 C-49.8154221 -12.55788379 -25.154835 -14.29251988 0 0 Z " fill="#040304" transform="translate(605,524)"/>
<path d="M0 0 C4.94586526 2.29629459 7.30760518 5.31323865 10 10 C11.66026461 14.98079383 11.59903425 19.30273629 9.875 24.1875 C7.28535548 28.07196678 4.22685959 30.88657021 0 33 C-5.53042052 33.50502343 -10.41030524 33.73807257 -15.5 31.375 C-19.96179187 27.13629773 -22.70660033 22.99267659 -23.3125 16.8125 C-22.82295107 10.84000302 -20.76610895 6.63995831 -16.375 2.5625 C-11.16197343 -0.86712274 -6.12168656 -0.56890019 0 0 Z " fill="#FCFCFC" transform="translate(859,528)"/>
<path d="M0 0 C4.88598425 2.48741016 9.23161486 5.69484459 11 11 C11.57490289 16.61762251 12.12561501 22.19699612 8.875 27.0625 C5.5749872 30.82084791 2.4309793 32.70973382 -2.6171875 33.3125 C-8.59719296 33.57179563 -12.39139582 33.15898426 -17 29 C-21.00474045 24.56231464 -22.37040776 21.24298925 -22.28125 15.19140625 C-21.61296965 9.9843885 -19.16606282 6.08277262 -15.375 2.5625 C-10.40614368 -0.70648442 -5.85164932 -0.60420141 0 0 Z " fill="#FCFCFC" transform="translate(872,631)"/>
<path d="M0 0 C4.62 0 9.24 0 14 0 C14 18.15 14 36.3 14 55 C9.38 55 4.76 55 0 55 C0 36.85 0 18.7 0 0 Z " fill="#000000" transform="translate(964,620)"/>
<path d="M0 0 C4.29 0 8.58 0 13 0 C13 18.48 13 36.96 13 56 C8.71 56 4.42 56 0 56 C0 37.52 0 19.04 0 0 Z " fill="#010101" transform="translate(1179,516)"/>
<path d="M0 0 C4.34984648 3.44362846 4.97373788 5.09308865 6.875 10.796875 C-3.355 10.796875 -13.585 10.796875 -24.125 10.796875 C-23.12052831 5.77451654 -22.61612928 4.28800428 -19.125 0.796875 C-13.05812253 -2.84325148 -6.36731729 -3.60502523 0 0 Z " fill="#FAFAFA" transform="translate(793.125,528.203125)"/>
<path d="M0 0 C2.5 1.625 2.5 1.625 4 4 C4.5625 6.9375 4.5625 6.9375 4 10 C1.99485568 12.88239496 0.53054789 14.68436172 -3.0078125 15.4140625 C-5.96403833 15.53405691 -8.35195207 15.3762859 -10.9375 13.875 C-12.46849826 11.17323836 -12.8757742 9.10564495 -13 6 C-10.13282264 -0.14395149 -6.55075684 -0.91917734 0 0 Z " fill="#040404" transform="translate(975,597)"/>
<path d="M0 0 C2.375 1.125 2.375 1.125 4 3 C5.19308162 6.65878362 5.32667744 8.29997692 3.6875 11.8125 C2 14 2 14 0 15 C-4.35477171 15.49299302 -6.34134023 15.45282859 -10 12.9375 C-12 10 -12 10 -12.0625 6.375 C-11 3 -11 3 -9.375 1.0625 C-6.05609564 -0.422273 -3.59655194 -0.38534485 0 0 Z " fill="#050505" transform="translate(1189,492)"/>
<path d="M0 0 C3.37027629 1.12342543 3.93188808 1.91331211 6.0625 4.625 C12.56296854 12.25895361 20.99962421 16.84450735 30 21 C27 22 27 22 24.28515625 20.953125 C15.54694419 16.33511232 3.8741858 9.67413647 0 0 Z " fill="#0A46AD" transform="translate(512,576)"/>
<path d="M0 0 C0.99 0.66 1.98 1.32 3 2 C1.63875 3.423125 1.63875 3.423125 0.25 4.875 C-3.41888727 9.10900024 -5.20371832 13.74851768 -7 19 C-7.7109375 17.44921875 -7.7109375 17.44921875 -8 15 C-6.96865675 12.47925882 -5.90461778 10.19835223 -4.625 7.8125 C-4.13 6.85053711 -4.13 6.85053711 -3.625 5.86914062 C-1.19836882 1.19836882 -1.19836882 1.19836882 0 0 Z " fill="#0951B5" transform="translate(323,484)"/>
<path d="M0 0 C0.66 0.33 1.32 0.66 2 1 C2 1.66 2 2.32 2 3 C-2.62 3 -7.24 3 -12 3 C-7.07393454 -0.6945491 -5.87217186 -0.3788498 0 0 Z " fill="#0A75C8" transform="translate(573,587)"/>
<path d="M0 0 C3.38746512 1.12915504 4.37451366 2.22743073 6.6875 4.875 C7.31011719 5.57367187 7.93273437 6.27234375 8.57421875 6.9921875 C10 9 10 9 10 12 C8.32737283 10.38113585 6.66204463 8.7547271 5 7.125 C4.071875 6.22007812 3.14375 5.31515625 2.1875 4.3828125 C0 2 0 2 0 0 Z " fill="#0E4FB1" transform="translate(512,576)"/>
<path d="M0 0 C0.66 0.33 1.32 0.66 2 1 C0.25 5.875 0.25 5.875 -2 7 C-2.66 6.67 -3.32 6.34 -4 6 C-2.84826645 3.53199953 -1.95216435 1.95216435 0 0 Z " fill="#1464BF" transform="translate(334,470)"/>
</svg>
