<?xml version="1.0" encoding="UTF-8"?>
<svg version="1.1" xmlns="http://www.w3.org/2000/svg" width="612" height="408">
<path d="M0 0 C2.89453125 1.35546875 2.89453125 1.35546875 5.8125 3.1875 C7.37871094 4.15042969 7.37871094 4.15042969 8.9765625 5.1328125 C9.97429687 5.74898438 10.97203125 6.36515625 12 7 C13.55663995 7.86479997 15.11855745 8.72022558 16.6875 9.5625 C20.60277336 11.71554506 24.29211711 14.12924812 27.98046875 16.6484375 C29.62976662 17.75222292 31.33940904 18.76537659 33.0625 19.75 C33.701875 20.1625 34.34125 20.575 35 21 C35 21.66 35 22.32 35 23 C35.59369385 23.12060791 36.1873877 23.24121582 36.79907227 23.36547852 C40.34220756 24.38695479 43.03391679 26.74165593 45.9375 28.9375 C46.5984668 29.43040527 47.25943359 29.92331055 47.94042969 30.43115234 C49.96623316 31.94638352 51.98415824 33.47154841 54 35 C54.59119629 35.44649902 55.18239258 35.89299805 55.79150391 36.35302734 C59.55528333 39.20050248 63.28591203 42.08781739 67 45 C67.53238281 45.41588379 68.06476563 45.83176758 68.61328125 46.26025391 C70.16540874 47.4776921 71.7078941 48.70739233 73.25 49.9375 C74.14203125 50.64777344 75.0340625 51.35804688 75.953125 52.08984375 C78 54 78 54 79 57 C73.15436812 59.27330129 67.16963683 60.04027872 61 61 C61 65.29 61 69.58 61 74 C61.66 74 62.32 74 63 74 C64.41441874 76.82883747 64.31900332 78.87376745 64 82 C62.3125 83.9375 62.3125 83.9375 60 85 C57.375 84.875 57.375 84.875 55 84 C52.43312633 80.1496895 53.16711276 78.41430237 54 74 C54.66 74 55.32 74 56 74 C56 70.37 56 66.74 56 63 C49.565 63.99 49.565 63.99 43 65 C43.165 65.928125 43.33 66.85625 43.5 67.8125 C44.23700282 72.85733621 44.08276815 77.91435711 44 83 C42.94941406 82.96519531 41.89882812 82.93039063 40.81640625 82.89453125 C32.97270125 82.7142484 26.29840069 82.761859 19 86 C15.72703724 87.09098759 13.37545441 87.09901035 9.93359375 87.0625 C8.12084961 87.05089844 8.12084961 87.05089844 6.27148438 87.0390625 C3.74283569 87.0132994 1.21418976 86.98726382 -1.31445312 86.9609375 C-7.61884358 86.92088843 -13.71304241 87.01653544 -19.95385742 87.96435547 C-23.64612919 88.02867616 -25.97088221 85.98057702 -29 84 C-37.3456815 81.72390505 -46.5304553 82.97360107 -55 84 C-54.97717062 80.58185979 -54.89982966 77.16705287 -54.8125 73.75 C-54.80669922 72.78191406 -54.80089844 71.81382812 -54.79492188 70.81640625 C-54.57206324 63.63540589 -54.57206324 63.63540589 -51.7421875 60.4921875 C-50.83726562 59.99976563 -49.93234375 59.50734375 -49 59 C-48.21238281 58.53335938 -47.42476562 58.06671875 -46.61328125 57.5859375 C-45.85402344 57.18632812 -45.09476563 56.78671875 -44.3125 56.375 C-41.77920797 55.03810303 -40.03754552 54.03754552 -38 52 C-40.66702526 52.93648955 -43.3336236 53.87416621 -46 54.8125 C-46.74378906 55.07353516 -47.48757812 55.33457031 -48.25390625 55.60351562 C-48.99511719 55.86455078 -49.73632812 56.12558594 -50.5 56.39453125 C-51.25023437 56.65572754 -52.00046875 56.91692383 -52.7734375 57.18603516 C-54.23126008 57.71897161 -55.67565469 58.29057547 -57.1015625 58.90380859 C-63.18669042 61.4838206 -67.3052172 61.07731627 -73.52734375 58.58984375 C-74.65269531 58.04457031 -75.77804688 57.49929687 -76.9375 56.9375 C-78.08089844 56.38964844 -79.22429687 55.84179688 -80.40234375 55.27734375 C-81.25957031 54.85582031 -82.11679688 54.43429688 -83 54 C-83 51 -83 51 -81.1875 48.8125 C-79 47 -79 47 -76 47 C-75.67 46.01 -75.34 45.02 -75 44 C-72.91796875 42.23828125 -72.91796875 42.23828125 -70.1875 40.3125 C-69.18976563 39.60738281 -68.19203125 38.90226562 -67.1640625 38.17578125 C-63.14229306 35.41019412 -59.09823376 32.68294527 -55.0234375 29.99609375 C-53.04158463 28.68766117 -51.06727793 27.36770997 -49.1015625 26.03515625 C-36.81852351 17.72023039 -24.01323814 10.28349087 -11.015625 3.1484375 C-4.65560404 -0.47529537 -4.65560404 -0.47529537 0 0 Z M22 24 C22.99 25.485 22.99 25.485 24 27 C24.66 26.67 25.32 26.34 26 26 C24.68 25.34 23.36 24.68 22 24 Z M26 27 C26.99 27.99 27.98 28.98 29 30 C29.66 29.67 30.32 29.34 31 29 C28.525 28.01 28.525 28.01 26 27 Z M31 30 C31.99 31.485 31.99 31.485 33 33 C33.66 33 34.32 33 35 33 C35 33.66 35 34.32 35 35 C35.99 34.67 36.98 34.34 38 34 C34.90672105 31.02324541 34.90672105 31.02324541 31 30 Z M39 36 C42.92831431 40.17383395 47.16479983 43.89394426 52 47 C52.66 47 53.32 47 54 47 C52.75740503 43.2722151 51.38344047 42.57425626 48.1875 40.375 C46.87845703 39.45847656 46.87845703 39.45847656 45.54296875 38.5234375 C43.27105739 37.16238461 41.5833156 36.44560689 39 36 Z M56 48 C56.66 48.66 57.32 49.32 58 50 C58 49.34 58 48.68 58 48 C57.34 48 56.68 48 56 48 Z M59 51 C59 51.99 59 52.98 59 54 C59.99 53.67 60.98 53.34 62 53 C61.67 52.34 61.34 51.68 61 51 C60.34 51 59.68 51 59 51 Z " fill="#070707" transform="translate(193,94)"/>
<path d="M0 0 C2.54880347 1.51918781 4.68408944 3.10946076 7 5 C7 5.66 7 6.32 7 7 C7.5775 7.185625 8.155 7.37125 8.75 7.5625 C13.28955879 10.46277367 14.98378854 15.41723907 16.25 20.4375 C16.4975 21.613125 16.745 22.78875 17 24 C18.60407328 24.02708567 20.2082785 24.04643483 21.8125 24.0625 C22.70582031 24.07410156 23.59914063 24.08570313 24.51953125 24.09765625 C27.13413791 24.11009967 27.13413791 24.11009967 30 23 C30.96208349 20.73917882 30.96208349 20.73917882 31.6875 18 C34.25550151 10.46262152 38.84865741 4.66601983 45.6875 0.5 C53.52616221 -3.04958289 62.51415251 -2.79587617 70.875 -1.3125 C80.00414873 2.52174247 85.5082002 9.25802654 89.4375 18.3125 C91.04312649 28.83827367 90.37835787 37.74378173 85.3125 47.125 C79.03102262 54.93440432 72.54346154 59.19141938 62.6875 60.875 C54.44340091 61.54305631 46.99634435 58.84515548 40.7109375 53.5859375 C34.76539786 48.07477519 32.27397303 42.77470109 30 35 C30 34.34 30 33.68 30 33 C25.71 33 21.42 33 17 33 C16.773125 34.485 16.54625 35.97 16.3125 37.5 C15.02108568 43.92069372 12.43167563 48.56832437 7.8125 53.1875 C-0.42688238 58.4973242 -7.82099355 62.05425969 -17.79296875 60.58984375 C-27.50971706 58.35164104 -33.77425953 53.24833886 -39.58984375 45.2734375 C-44.12644866 37.95957585 -44.32767219 27.87276895 -42.46484375 19.6328125 C-41.76498117 17.66707827 -40.94408663 15.85931471 -40 14 C-39.484375 12.824375 -38.96875 11.64875 -38.4375 10.4375 C-30.94353868 -2.17781713 -12.78196741 -5.36842631 0 0 Z M44 13 C39.23028045 19.25219996 37.05780265 25.03911514 38 33 C39.87330297 40.6244624 43.38628667 45.73589535 50 50 C56.40871645 52.5859733 62.13137089 52.96037854 68.5625 50.375 C74.6109905 47.41773122 78.49969857 44.01412097 80.875 37.625 C82.78655872 30.88364499 82.6937789 24.55876601 80 18 C75.31391003 11.16084167 70.2726617 7.68044079 62.0625 6.125 C55.31515444 5.48550303 49.09684657 8.80925949 44 13 Z M-30 15 C-30.556875 15.61875 -31.11375 16.2375 -31.6875 16.875 C-35.5222463 23.08363687 -35.31648324 29.09404131 -34 36 C-32.11572233 42.53955192 -28.42907404 46.15916368 -23 50 C-17.16763402 52.79467536 -11.04326419 52.85071818 -4.9375 50.9375 C0.94740851 48.45842437 5.39740323 44.05108787 7.9375 38.1875 C9.86845385 31.94810538 10.08725347 25.67690689 7.3125 19.6875 C4.451224 14.67268412 -0.13331846 9.19485438 -5.8203125 7.4375 C-15.53223196 5.48815416 -23.34490059 7.42058123 -30 15 Z " fill="#2477C3" transform="translate(166,181)"/>
<path d="M0 0 C2.54880347 1.51918781 4.68408944 3.10946076 7 5 C7 5.66 7 6.32 7 7 C7.5775 7.185625 8.155 7.37125 8.75 7.5625 C13.28955879 10.46277367 14.98378854 15.41723907 16.25 20.4375 C16.4975 21.613125 16.745 22.78875 17 24 C19.97 24 22.94 24 26 24 C26 24.33 26 24.66 26 25 C24.37585622 25.19477739 22.75063577 25.38059458 21.125 25.5625 C20.22007812 25.66691406 19.31515625 25.77132812 18.3828125 25.87890625 C16 26 16 26 14 25 C13.5078125 23.0390625 13.5078125 23.0390625 13.125 20.625 C12.39682361 16.83778203 12.39682361 16.83778203 9.875 13.9375 C9.25625 13.628125 8.6375 13.31875 8 13 C8.11362262 14.4800841 8.24122908 15.95910074 8.375 17.4375 C8.47941406 18.67306641 8.47941406 18.67306641 8.5859375 19.93359375 C8.79089844 20.95646484 8.79089844 20.95646484 9 22 C9.66 22.33 10.32 22.66 11 23 C11.59355614 25.64860427 11.74209269 28.29197322 12 31 C12.61875 30.814375 13.2375 30.62875 13.875 30.4375 C16 30 16 30 18 31 C21.37328752 31.31583446 24.74734365 31.51133762 28.12890625 31.71875 C31 32 31 32 32 33 C32.04080783 34.99958364 32.04254356 37.00045254 32 39 C30 35.25 30 35.25 30 33 C25.71 33 21.42 33 17 33 C16.773125 34.485 16.54625 35.97 16.3125 37.5 C15.02108568 43.92069372 12.43167563 48.56832437 7.8125 53.1875 C-0.42688238 58.4973242 -7.82099355 62.05425969 -17.79296875 60.58984375 C-27.50971706 58.35164104 -33.77425953 53.24833886 -39.58984375 45.2734375 C-44.12644866 37.95957585 -44.32767219 27.87276895 -42.46484375 19.6328125 C-41.76498117 17.66707827 -40.94408663 15.85931471 -40 14 C-39.484375 12.824375 -38.96875 11.64875 -38.4375 10.4375 C-30.94353868 -2.17781713 -12.78196741 -5.36842631 0 0 Z M-30 15 C-30.556875 15.61875 -31.11375 16.2375 -31.6875 16.875 C-35.5222463 23.08363687 -35.31648324 29.09404131 -34 36 C-32.11572233 42.53955192 -28.42907404 46.15916368 -23 50 C-17.16763402 52.79467536 -11.04326419 52.85071818 -4.9375 50.9375 C0.94740851 48.45842437 5.39740323 44.05108787 7.9375 38.1875 C9.86845385 31.94810538 10.08725347 25.67690689 7.3125 19.6875 C4.451224 14.67268412 -0.13331846 9.19485438 -5.8203125 7.4375 C-15.53223196 5.48815416 -23.34490059 7.42058123 -30 15 Z " fill="#0A68BB" transform="translate(166,181)"/>
<path d="M0 0 C4.5502556 0.75837593 7.82890653 1.39184772 10.6328125 5.2421875 C11.12523437 6.11101562 11.61765625 6.97984375 12.125 7.875 C12.62257812 8.73867187 13.12015625 9.60234375 13.6328125 10.4921875 C15 13 15 13 15.9921875 15.2578125 C16.94567446 17.3501352 16.94567446 17.3501352 20 18 C20 18.66 20 19.32 20 20 C20.55945313 20.26941406 21.11890625 20.53882813 21.6953125 20.81640625 C24.16444116 22.08445029 26.50780452 23.4884224 28.875 24.9375 C41.77108208 32.66386987 54.38353446 35.19514589 69.3125 31.75 C74.23894044 30.35535893 78.62592937 28.65874881 83 26 C83.80179687 25.51789063 84.60359375 25.03578125 85.4296875 24.5390625 C93.09781598 19.57459026 98.37640674 13.2679163 103.1875 5.5625 C105.19612883 2.72271441 106.85759401 1.45034123 110 0 C110.99 0 111.98 0 113 0 C108.79524388 15.08765432 99.6310573 25.40702461 86.25 33.3125 C71.93369864 41.2795799 56.48874563 43.50582217 40.625 39.375 C29.53314344 35.73270843 21.23393444 30.22025681 13 22 C11.89785156 20.91525391 11.89785156 20.91525391 10.7734375 19.80859375 C5.91198868 14.71954901 0 7.4091216 0 0 Z " fill="#212121" transform="translate(133,238)"/>
<path d="M0 0 C0.78369141 1.75 0.78369141 1.75 1.3515625 4 C1.66867187 5.2065625 1.66867187 5.2065625 1.9921875 6.4375 C2.20101563 7.283125 2.40984375 8.12875 2.625 9 C3.05200574 10.66735576 3.48155931 12.33406179 3.9140625 14 C4.0992041 14.7425 4.2843457 15.485 4.47509766 16.25 C4.85239996 18.01044826 4.85239996 18.01044826 6 19 C6.16604736 18.42967041 6.33209473 17.85934082 6.50317383 17.27172852 C7.26023271 14.69804345 8.03607138 12.1304046 8.8125 9.5625 C9.07353516 8.66466797 9.33457031 7.76683594 9.60351562 6.84179688 C9.86455078 5.98779297 10.12558594 5.13378906 10.39453125 4.25390625 C10.63018799 3.46314697 10.86584473 2.6723877 11.10864258 1.85766602 C11.5498645 0.93812134 11.5498645 0.93812134 12 0 C15.11385048 -1.03795016 16.05927485 -1.24655882 19 0 C19.98901367 1.75 19.98901367 1.75 20.66796875 4 C20.92126953 4.804375 21.17457031 5.60875 21.43554688 6.4375 C21.68369141 7.283125 21.93183594 8.12875 22.1875 9 C22.69964685 10.66733663 23.213861 12.33404013 23.73046875 14 C24.06147583 15.11375 24.06147583 15.11375 24.39916992 16.25 C24.85848225 18.0048728 24.85848225 18.0048728 26 19 C26.65077296 16.95990245 27.29539824 14.91784331 27.9375 12.875 C28.29714844 11.73804688 28.65679687 10.60109375 29.02734375 9.4296875 C29.91898339 6.28567301 30.53351014 3.23105607 31 0 C34.28976808 -1.09658936 35.71303767 -0.79953138 39 0 C38.37758534 4.35403433 37.34150166 8.32795284 35.93359375 12.4921875 C35.53076172 13.69101563 35.12792969 14.88984375 34.71289062 16.125 C34.29201172 17.3625 33.87113281 18.6 33.4375 19.875 C33.00804586 21.1482967 32.5790054 22.42173301 32.15039062 23.6953125 C31.10431745 26.79827113 30.05406048 29.8997474 29 33 C27.02 33 25.04 33 23 33 C20.25609141 27.10825719 17.93624298 21.20477864 16 15 C13.58883496 20.97283522 11.23713768 26.95972825 9 33 C7.02 33 5.04 33 3 33 C-2.66211458 22.72431058 -5.7517385 11.22366779 -9 0 C-3.375 -1.125 -3.375 -1.125 0 0 Z " fill="#111111" transform="translate(428,196)"/>
<path d="M0 0 C-0.5259375 1.051875 -0.5259375 1.051875 -1.0625 2.125 C-2.1639193 5.50268586 -1.79516141 7.58080593 -1 11 C0.0725 11 1.145 11 2.25 11 C4.83333333 11 7.41666667 11 10 11 C10.65559735 17.88377214 9.69002463 21.45414997 5.80078125 27.15234375 C2.4628457 30.57716699 -1.27795426 31.30138948 -5.9375 31.375 C-10.71806766 31.26134609 -13.37689576 30.27804669 -17 27 C-20.46162481 22.78991577 -21.90570143 19.46931699 -22 14 C-20.79645053 8.41893875 -18.48462199 4.63040828 -14 1 C-9.42318945 -1.79693978 -5.06152824 -0.8160198 0 0 Z " fill="#121213" transform="translate(159,195)"/>
<path d="M0 0 C6.28905868 4.798424 11.28543737 12.17281859 12.5 20 C12.63641799 24.00664691 12.6184267 27.99323005 12.5 32 C12.17 32 11.84 32 11.5 32 C10.51 25.565 10.51 25.565 9.5 19 C8.51 19.495 8.51 19.495 7.5 20 C6.81270746 22.11846285 6.81270746 22.11846285 6.375 24.5625 C6.12363281 25.80193359 6.12363281 25.80193359 5.8671875 27.06640625 C5.68542969 28.02353516 5.68542969 28.02353516 5.5 29 C5.17 29 4.84 29 4.5 29 C4.35304687 28.14277344 4.20609375 27.28554687 4.0546875 26.40234375 C2.65551423 19.26977656 1.40651774 13.60320162 -4.5 9 C-9.72609216 6.09661547 -15.63719899 4.07006642 -21.609375 5.5078125 C-23.64037267 6.23316881 -25.55700619 7.06619047 -27.5 8 C-28.386875 8.391875 -29.27375 8.78375 -30.1875 9.1875 C-33.59446713 11.85782559 -35.36714046 15.28807604 -37.5 19 C-38.16 19.99 -38.82 20.98 -39.5 22 C-40.16 21.67 -40.82 21.34 -41.5 21 C-41.5 20.34 -41.5 19.68 -41.5 19 C-42.82 19.33 -44.14 19.66 -45.5 20 C-45.5 21.32 -45.5 22.64 -45.5 24 C-47.15 23.67 -48.8 23.34 -50.5 23 C-49.51 22.34 -48.52 21.68 -47.5 21 C-46.55218604 18.65826065 -46.55218604 18.65826065 -45.8125 15.9375 C-43.23397516 8.43812624 -38.62142069 2.6477923 -31.8125 -1.5 C-22.13917102 -5.88037539 -9.0654564 -5.65093427 0 0 Z " fill="#196BB8" transform="translate(243.5,183)"/>
<path d="M0 0 C2.54880347 1.51918781 4.68408944 3.10946076 7 5 C7 5.66 7 6.32 7 7 C7.5775 7.185625 8.155 7.37125 8.75 7.5625 C13.28955879 10.46277367 14.98378854 15.41723907 16.25 20.4375 C16.4975 21.613125 16.745 22.78875 17 24 C19.97 24 22.94 24 26 24 C26 24.33 26 24.66 26 25 C24.37585622 25.19477739 22.75063577 25.38059458 21.125 25.5625 C20.22007812 25.66691406 19.31515625 25.77132812 18.3828125 25.87890625 C16 26 16 26 14 25 C13.5078125 23.0390625 13.5078125 23.0390625 13.125 20.625 C12.39682361 16.83778203 12.39682361 16.83778203 9.875 13.9375 C9.25625 13.628125 8.6375 13.31875 8 13 C8.11362262 14.4800841 8.24122908 15.95910074 8.375 17.4375 C8.47941406 18.67306641 8.47941406 18.67306641 8.5859375 19.93359375 C8.79089844 20.95646484 8.79089844 20.95646484 9 22 C9.66 22.33 10.32 22.66 11 23 C11.59355614 25.64860427 11.74209269 28.29197322 12 31 C12.61875 30.814375 13.2375 30.62875 13.875 30.4375 C16 30 16 30 18 31 C21.37328752 31.31583446 24.74734365 31.51133762 28.12890625 31.71875 C31 32 31 32 32 33 C32.04080783 34.99958364 32.04254356 37.00045254 32 39 C30 35.25 30 35.25 30 33 C25.71 33 21.42 33 17 33 C16.34 36.3 15.68 39.6 15 43 C14.01 41.68 13.02 40.36 12 39 C11.01 39.33 10.02 39.66 9 40 C8.01 39.505 8.01 39.505 7 39 C7.165 38.38125 7.33 37.7625 7.5 37.125 C8.81426991 28.91081306 8.28191184 23.15735628 4 16 C3.66226563 15.2884375 3.32453125 14.576875 2.9765625 13.84375 C1.68169961 11.39904886 0.55985225 10.9954981 -2 10 C-2.86625 9.62875 -3.7325 9.2575 -4.625 8.875 C-12.0991774 6.9372503 -18.1728667 7.51676873 -25 11 C-25.99 11.33 -26.98 11.66 -28 12 C-29.08431094 13.74867483 -29.08431094 13.74867483 -30 16 C-30.7734375 17.3303125 -30.7734375 17.3303125 -31.5625 18.6875 C-34.34186595 25.09212588 -34.295718 31.23347267 -33 38 C-35.24245338 36.21940694 -35.95446379 35.18405352 -36.65234375 32.36328125 C-37.32118819 25.20756193 -36.87071678 21.0993113 -33 15 C-33.66 14.67 -34.32 14.34 -35 14 C-33.68 14 -32.36 14 -31 14 C-31.33 12.35 -31.66 10.7 -32 9 C-33.32 9 -34.64 9 -36 9 C-36 8.34 -36 7.68 -36 7 C-34.0234375 5.34375 -34.0234375 5.34375 -31.375 3.5 C-30.51648438 2.8915625 -29.65796875 2.283125 -28.7734375 1.65625 C-20.35837062 -3.36908571 -9.02982095 -3.7925248 0 0 Z " fill="#1370C4" transform="translate(166,181)"/>
<path d="M0 0 C0.474375 0.45375 0.94875 0.9075 1.4375 1.375 C0.86405063 4.24224686 0.5760485 5.2364515 -1.5625 7.375 C-3.82524788 7.02144564 -5.51338852 6.39955574 -7.5625 5.375 C-8.93592831 5.3060528 -10.31252102 5.29032292 -11.6875 5.3125 C-12.96625 5.333125 -14.245 5.35375 -15.5625 5.375 C-15.2325 6.365 -14.9025 7.355 -14.5625 8.375 C-11.34221279 9.55622111 -8.08133027 10.35613125 -4.76171875 11.21484375 C-1.33308124 12.45819581 0.25905745 13.47392638 2.4375 16.375 C3.50606869 20.76713162 2.98394974 24.42377268 0.75 28.3125 C-3.38488468 32.00037012 -6.9473586 32.77986669 -12.50390625 32.6328125 C-16.70479644 32.10670481 -20.1244945 30.40856645 -23.5625 27.9375 C-24.5625 26.375 -24.5625 26.375 -24.5 24.3125 C-23.5625 22.375 -23.5625 22.375 -21.8125 20.9375 C-21.07 20.751875 -20.3275 20.56625 -19.5625 20.375 C-18.86125 20.82875 -18.16 21.2825 -17.4375 21.75 C-13.2340601 24.12585733 -9.28807204 23.62274844 -4.5625 23.375 C-4.8925 22.055 -5.2225 20.735 -5.5625 19.375 C-6.44292969 19.22804688 -7.32335937 19.08109375 -8.23046875 18.9296875 C-18.90820215 16.8676169 -18.90820215 16.8676169 -21.875 13.5625 C-23.75098006 10.01898212 -24.23255882 8.31159559 -23.5625 4.375 C-22.50789321 1.35179386 -21.49085881 -0.10988579 -18.67578125 -1.671875 C-11.98637214 -4.33362941 -6.10255983 -3.86991599 0 0 Z " fill="#1A1A1A" transform="translate(298.5625,238.625)"/>
<path d="M0 0 C1.98 0 3.96 0 6 0 C6 2.31 6 4.62 6 7 C13.76666128 11.63012499 19.68935021 13.15064079 28.75 11.1875 C32.8463588 9.7718061 32.8463588 9.7718061 36 7 C36.33380814 3.37436186 36.33380814 3.37436186 36 0 C38.31 0 40.62 0 43 0 C43.680625 1.7015625 43.680625 1.7015625 44.375 3.4375 C45.57095806 7.04721692 45.57095806 7.04721692 48 8 C48 9.98 48 11.96 48 14 C44.43213296 15.1468144 44.43213296 15.1468144 42.171875 14.37890625 C39.12267142 13.84694088 37.6766809 14.89792914 35 16.375 C28.68420483 19.82172968 23.19276076 20.91134435 16 20 C12.78254707 18.90511737 9.74707308 17.61902724 6.6640625 16.19140625 C4.39807912 15.17802658 2.44488372 14.38434853 0 14 C-2.21771064 14.85790183 -2.21771064 14.85790183 -4 16 C-4.66 13.69 -5.32 11.38 -6 9 C-5.01 8.67 -4.02 8.34 -3 8 C-1.4161808 5.44829129 -0.62655832 2.92393881 0 0 Z " fill="#1F1F20" transform="translate(168,239)"/>
<path d="M0 0 C2.84261831 0.7748667 2.84261831 0.7748667 9.0625 0.5 C9.0625 8.42 9.0625 16.34 9.0625 24.5 C5.7625 24.5 2.4625 24.5 -0.9375 24.5 C-2.01 24.726875 -3.0825 24.95375 -4.1875 25.1875 C-8.02038726 25.62305537 -9.76482348 24.63810809 -12.9375 22.5 C-15.8227357 19.23512803 -17.18228114 16.75099975 -17.3125 12.4375 C-16.72825426 6.30291971 -16.72825426 6.30291971 -14.9375 3.5 C-9.92327017 -0.06781738 -6.19724152 -1.59928813 0 0 Z M-8.375 8.0625 C-10.22828141 10.45611144 -10.22828141 10.45611144 -9.875 13.625 C-9.17055313 16.79174932 -9.17055313 16.79174932 -5.9375 18.5 C-2.84754903 18.58223366 -2.84754903 18.58223366 0.0625 17.5 C1.98865296 14.61077056 2.18232281 13.15902546 1.5625 9.75 C0.20188444 7.23118715 0.20188444 7.23118715 -2.8125 6.4375 C-5.98138856 6.22851679 -5.98138856 6.22851679 -8.375 8.0625 Z " fill="#1C1C1C" transform="translate(343.9375,204.5)"/>
<path d="M0 0 C0.75410156 0.00322266 1.50820313 0.00644531 2.28515625 0.00976562 C3.06246094 0.01814453 3.83976562 0.02652344 4.640625 0.03515625 C5.43339844 0.03966797 6.22617187 0.04417969 7.04296875 0.04882812 C8.99222008 0.0605706 10.94143238 0.07850479 12.890625 0.09765625 C13.0864941 3.90977528 13.27092065 7.72236159 13.453125 11.53515625 C13.50919922 12.62376953 13.56527344 13.71238281 13.62304688 14.83398438 C13.67138672 15.86845703 13.71972656 16.90292969 13.76953125 17.96875 C13.8166626 18.9270874 13.86379395 19.8854248 13.91235352 20.87280273 C13.890625 23.09765625 13.890625 23.09765625 12.890625 24.09765625 C10.97651821 24.09765625 9.06223699 24.09289123 7.1484375 24.05859375 C4.93532193 24.09688295 2.88487622 24.36594407 0.703125 24.72265625 C-3.07893726 25.09466237 -4.81097751 24.84992992 -8.109375 23.09765625 C-8.109375 22.43765625 -8.109375 21.77765625 -8.109375 21.09765625 C-9.099375 20.76765625 -10.089375 20.43765625 -11.109375 20.09765625 C-12.51541118 17.2855839 -12.35495005 14.85756159 -12.421875 11.72265625 C-12.45925781 10.58054687 -12.49664062 9.4384375 -12.53515625 8.26171875 C-12.109375 5.09765625 -12.109375 5.09765625 -10.33984375 2.74609375 C-7.0219464 0.29398748 -4.05620469 -0.03072882 0 0 Z M-3.921875 7.22265625 C-5.67939914 9.99769436 -5.57760246 11.8869537 -5.109375 15.09765625 C-3.609375 17.26432292 -3.609375 17.26432292 -1.109375 18.09765625 C2.11237044 17.38541778 2.11237044 17.38541778 4.890625 16.09765625 C5.220625 13.78765625 5.550625 11.47765625 5.890625 9.09765625 C5.230625 9.09765625 4.570625 9.09765625 3.890625 9.09765625 C3.560625 8.10765625 3.230625 7.11765625 2.890625 6.09765625 C0.14976444 5.87542431 -1.54901221 5.74984486 -3.921875 7.22265625 Z " fill="#111111" transform="translate(345.109375,245.90234375)"/>
<path d="M0 0 C2.31 0 4.62 0 7 0 C7 3.63 7 7.26 7 11 C7.66 10.67 8.32 10.34 9 10 C17.37931034 9.68965517 17.37931034 9.68965517 20 11 C23.22497361 16.04641348 23.37820977 20.10480691 23.1875 25.875 C23.16719727 27.050625 23.16719727 27.050625 23.14648438 28.25 C23.11141789 30.16696782 23.05762072 32.08357751 23 34 C20.69 34 18.38 34 16 34 C15.67 28.39 15.34 22.78 15 17 C13.02 17 11.04 17 9 17 C7.47893366 20.04213267 7.62570662 23.28047572 7.4375 26.625 C7.39431641 27.33140625 7.35113281 28.0378125 7.30664062 28.765625 C7.20055249 30.51018537 7.09977111 32.25506697 7 34 C4.69 34 2.38 34 0 34 C-0.86945811 30.25019209 -1.12865741 26.77551828 -1.1328125 22.9296875 C-1.13410156 21.78628906 -1.13539063 20.64289063 -1.13671875 19.46484375 C-1.13285156 18.28019531 -1.12898438 17.09554687 -1.125 15.875 C-1.12886719 14.68261719 -1.13273437 13.49023438 -1.13671875 12.26171875 C-1.13542969 11.12089844 -1.13414062 9.98007813 -1.1328125 8.8046875 C-1.13168457 7.76296387 -1.13055664 6.72124023 -1.12939453 5.64794922 C-1 3 -1 3 0 0 Z " fill="#1A1A1A" transform="translate(306,236)"/>
<path d="M0 0 C0.33 3.3 0.66 6.6 1 10 C2.2375 9.79375 3.475 9.5875 4.75 9.375 C7.27447388 9.07224123 8.83890489 8.95646078 11.3125 9.625 C14.15435812 11.9405881 15.81404014 14.38344923 16.2409668 18.09472656 C16.29478592 20.50723836 16.26174191 22.90058974 16.1875 25.3125 C16.16719727 26.56643555 16.16719727 26.56643555 16.14648438 27.84570312 C16.11131217 29.89741498 16.05751048 31.94879275 16 34 C13.69 34 11.38 34 9 34 C8.67 28.39 8.34 22.78 8 17 C5.69 17 3.38 17 1 17 C0.67 22.61 0.34 28.22 0 34 C-2.31 34 -4.62 34 -7 34 C-7 23.11 -7 12.22 -7 1 C-2 0 -2 0 0 0 Z " fill="#1B1B1B" transform="translate(505,195)"/>
<path d="M0 0 C3.97107254 2.36574534 5.82802974 4.52520447 7 9 C7.125 12.3125 7.125 12.3125 7 15 C5.68 15 4.36 15 3 15 C3.37125 15.763125 3.7425 16.52625 4.125 17.3125 C4.41375 18.199375 4.7025 19.08625 5 20 C2.71228323 23.43157515 2.16451995 23.56094372 -1.6875 24.375 C-6.90586466 25.27108282 -9.5071911 24.78554152 -14 22 C-16.72391439 19.69514936 -17.8518954 18.15484097 -18.30859375 14.59375 C-18.41825905 10.20713785 -18.40899478 6.7867142 -16 3 C-10.61317187 -1.06760492 -6.533943 -1.91237356 0 0 Z M-10 7 C-10 7.66 -10 8.32 -10 9 C-7.03 9 -4.06 9 -1 9 C-1 8.34 -1 7.68 -1 7 C-5.61507774 5.95785309 -5.61507774 5.95785309 -10 7 Z M-10 15 C-9.01 16.485 -9.01 16.485 -8 18 C-5 18.5 -5 18.5 -2 18 C-1.34 17.01 -0.68 16.02 0 15 C-3.3 15 -6.6 15 -10 15 Z " fill="#191919" transform="translate(318,205)"/>
<path d="M0 0 C3.44723521 1.33541544 5.46526239 3.65517549 7.16796875 6.83984375 C7.76054432 9.81324694 7.69221341 12.63399914 7.54296875 15.65234375 C7.52169922 16.81540039 7.52169922 16.81540039 7.5 18.00195312 C7.35159409 23.65621841 7.35159409 23.65621841 6.16796875 24.83984375 C4.16838511 24.88065158 2.16751621 24.88238731 0.16796875 24.83984375 C-0.73616798 21.00260203 -0.93780023 17.46482101 -0.89453125 13.52734375 C-0.88550781 12.45871094 -0.87648438 11.39007813 -0.8671875 10.2890625 C-0.85558594 9.48082031 -0.84398437 8.67257813 -0.83203125 7.83984375 C-3.14203125 7.83984375 -5.45203125 7.83984375 -7.83203125 7.83984375 C-8.16203125 13.44984375 -8.49203125 19.05984375 -8.83203125 24.83984375 C-11.14203125 24.83984375 -13.45203125 24.83984375 -15.83203125 24.83984375 C-15.83203125 16.91984375 -15.83203125 8.99984375 -15.83203125 0.83984375 C-13.19203125 0.83984375 -10.55203125 0.83984375 -7.83203125 0.83984375 C-5.18431258 -0.48401558 -2.89747901 -0.1401102 0 0 Z " fill="#141414" transform="translate(393.83203125,204.16015625)"/>
<path d="M0 0 C0 8.58 0 17.16 0 26 C5.61 26 11.22 26 17 26 C17 27.98 17 29.96 17 32 C16 33 16 33 13.77514648 33.11352539 C12.81680908 33.10828857 11.85847168 33.10305176 10.87109375 33.09765625 C9.93966553 33.09515869 9.0082373 33.09266113 8.04858398 33.09008789 C6.26109741 33.07643188 6.26109741 33.07643188 4.4375 33.0625 C0.663125 33.041875 -3.11125 33.02125 -7 33 C-7 22.11 -7 11.22 -7 0 C-2 -1 -2 -1 0 0 Z " fill="#131313" transform="translate(282,196)"/>
<path d="M0 0 C0.99 0.66 1.98 1.32 3 2 C2.67 3.65 2.34 5.3 2 7 C0.35 7 -1.3 7 -3 7 C-3.33 7.99 -3.66 8.98 -4 10 C-2.35 10 -0.7 10 1 10 C1 11.98 1 13.96 1 16 C-0.98 16 -2.96 16 -5 16 C-5 21.94 -5 27.88 -5 34 C-7.31 34 -9.62 34 -12 34 C-12 28.06 -12 22.12 -12 16 C-12.99 16.33 -13.98 16.66 -15 17 C-16 16 -16 16 -16.0625 13.4375 C-16.041875 12.633125 -16.02125 11.82875 -16 11 C-15.34 10.67 -14.68 10.34 -14 10 C-13.34 10.33 -12.68 10.66 -12 11 C-11.9175 9.9275 -11.835 8.855 -11.75 7.75 C-11 4 -11 4 -9.375 1.5625 C-6.09631706 -0.59452825 -3.84765451 -0.41974413 0 0 Z " fill="#121212" transform="translate(409,236)"/>
<path d="M0 0 C2.64 0 5.28 0 8 0 C8 1.98 8 3.96 8 6 C9.65 6 11.3 6 13 6 C13 7.98 13 9.96 13 12 C11.35 12 9.7 12 8 12 C8.33 15.3 8.66 18.6 9 22 C10.32 22.33 11.64 22.66 13 23 C13.33 24.98 13.66 26.96 14 29 C11.57847262 30.21076369 10.24576913 30.07767714 7.5625 29.875 C6.78003906 29.83117187 5.99757813 29.78734375 5.19140625 29.7421875 C3 29 3 29 1.2265625 26.83984375 C-0.19410805 23.55058423 -0.30506674 21.25369121 -0.1875 17.6875 C-0.16042969 16.61886719 -0.13335937 15.55023438 -0.10546875 14.44921875 C-0.07066406 13.64097656 -0.03585937 12.83273438 0 12 C-0.99 12 -1.98 12 -3 12 C-3 10.02 -3 8.04 -3 6 C-2.01 6 -1.02 6 0 6 C0 4.02 0 2.04 0 0 Z " fill="#181818" transform="translate(482,199)"/>
<path d="M0 0 C0.33 0.66 0.66 1.32 1 2 C1.9590625 2.3403125 1.9590625 2.3403125 2.9375 2.6875 C6.10071831 4.7004571 6.1208157 7.4832628 7 11 C8.84991728 13.29274244 8.84991728 13.29274244 11.71484375 13.16015625 C12.77832031 13.12792969 13.84179688 13.09570312 14.9375 13.0625 C18.38352334 12.96619558 20.71486711 12.9049557 24 14 C24 12.68 24 11.36 24 10 C25.8125 9.3125 25.8125 9.3125 28 9 C29.625 10.15625 29.625 10.15625 31 12 C31.29296875 14.48046875 31.29296875 14.48046875 31.1875 17.1875 C31.14689453 18.53908203 31.14689453 18.53908203 31.10546875 19.91796875 C31.07066406 20.60503906 31.03585938 21.29210937 31 22 C30.01 21.67 29.02 21.34 28 21 C27.67 20.34 27.34 19.68 27 19 C26.34 21.64 25.68 24.28 25 27 C24.67 27 24.34 27 24 27 C23.67 25.02 23.34 23.04 23 21 C21.64455078 20.90912109 21.64455078 20.90912109 20.26171875 20.81640625 C19.08222656 20.73261719 17.90273437 20.64882812 16.6875 20.5625 C15.51574219 20.48128906 14.34398437 20.40007812 13.13671875 20.31640625 C10 20 10 20 7 19 C4.85744207 19.38932856 4.85744207 19.38932856 3 20 C2.96261719 19.41992188 2.92523438 18.83984375 2.88671875 18.2421875 C2.55067431 14.24918883 2.19110462 11.38220923 0.375 7.75 C-1.20642073 4.58715854 -1.06784172 3.30060169 0 0 Z " fill="#0368C3" transform="translate(174,193)"/>
<path d="M0 0 C1.2077558 3.62326739 0.54311128 4.64146369 -1 8 C-1.94875 7.814375 -2.8975 7.62875 -3.875 7.4375 C-6.89868793 6.71313368 -6.89868793 6.71313368 -9 8 C-9.31241455 10.71446979 -9.51336592 13.33909361 -9.625 16.0625 C-9.66367187 16.82111328 -9.70234375 17.57972656 -9.7421875 18.36132812 C-9.83673562 20.24047195 -9.91946756 22.12020336 -10 24 C-12.31 24 -14.62 24 -17 24 C-17 16.08 -17 8.16 -17 0 C-14.36 0 -11.72 0 -9 0 C-5.93109813 -1.53445094 -3.29905734 -0.54984289 0 0 Z " fill="#1A1A1A" transform="translate(375,205)"/>
<path d="M0 0 C17.6318831 -0.47725398 17.6318831 -0.47725398 25.23046875 5.3203125 C31.49579006 11.26752699 35.80856407 18.37745587 36.10546875 27.09765625 C36.12284489 30.06897595 36.08777958 33.03012424 36 36 C35.67 36 35.34 36 35 36 C34.01 29.565 34.01 29.565 33 23 C32.01 23.495 32.01 23.495 31 24 C30.31270746 26.11846285 30.31270746 26.11846285 29.875 28.5625 C29.70742187 29.38878906 29.53984375 30.21507812 29.3671875 31.06640625 C29.24601562 31.70449219 29.12484375 32.34257812 29 33 C28.67 33 28.34 33 28 33 C27.85304687 32.14277344 27.70609375 31.28554687 27.5546875 30.40234375 C26.10578045 23.01624859 24.59778135 18.10214446 19 13 C17.99768251 12.00232287 16.99702825 11.00296294 16 10 C17.32 10 18.64 10 20 10 C20.39412222 6.1854974 20.39412222 6.1854974 18.75073242 4.2956543 C16.71595953 2.78979183 15.4914454 2.51420143 12.98828125 2.26953125 C12.23095703 2.18896484 11.47363281 2.10839844 10.69335938 2.02539062 C9.90767578 1.95513672 9.12199219 1.88488281 8.3125 1.8125 C7.11657227 1.6897168 7.11657227 1.6897168 5.89648438 1.56445312 C3.932156 1.36449155 1.96619588 1.18067746 0 1 C0 0.67 0 0.34 0 0 Z " fill="#2A79C0" transform="translate(220,179)"/>
<path d="M0 0 C0.639375 0.2475 1.27875 0.495 1.9375 0.75 C2.2675 1.74 2.5975 2.73 2.9375 3.75 C2.48375 4.12125 2.03 4.4925 1.5625 4.875 C-1.961311 8.94093577 -2.70815664 14.52343542 -3.0625 19.75 C-2.58914719 22.80575537 -1.84473083 25.76076075 -1.0625 28.75 C-0.72263333 30.41534667 -0.38547514 32.08129513 -0.0625 33.75 C-2.3125 34.5 -2.3125 34.5 -5.0625 34.75 C-8.20935778 32.38985666 -9.37577527 30.54679539 -10.0625 26.75 C-10.7470674 16.79744319 -9.88284627 9.1009316 -4.0625 0.75 C-2.0625 -0.25 -2.0625 -0.25 0 0 Z " fill="#156EC2" transform="translate(133.0625,189.25)"/>
<path d="M0 0 C1.22257108 0.64018267 2.43776218 1.29645167 3.625 2 C3.295 4.31 2.965 6.62 2.625 9 C2.01914063 8.7834375 1.41328125 8.566875 0.7890625 8.34375 C-8.41541379 5.28503172 -15.59498784 4.69958588 -24.375 9 C-25.365 9 -26.355 9 -27.375 9 C-27.375 6.69 -27.375 4.38 -27.375 2 C-19.00557395 -3.35643267 -9.17527726 -4.05857446 0 0 Z " fill="#272728" transform="translate(238.375,206)"/>
<path d="M0 0 C4.9962796 4.16356634 7.04953742 8.84351198 9 15 C9 15.66 9 16.32 9 17 C11.97 17 14.94 17 18 17 C18 17.33 18 17.66 18 18 C16.37585622 18.19477739 14.75063577 18.38059458 13.125 18.5625 C12.22007812 18.66691406 11.31515625 18.77132812 10.3828125 18.87890625 C8 19 8 19 6 18 C5.5078125 16.0390625 5.5078125 16.0390625 5.125 13.625 C4.39682361 9.83778203 4.39682361 9.83778203 1.875 6.9375 C1.25625 6.628125 0.6375 6.31875 0 6 C0.11362262 7.4800841 0.24122908 8.95910074 0.375 10.4375 C0.44460937 11.26121094 0.51421875 12.08492187 0.5859375 12.93359375 C0.72257813 13.61550781 0.85921875 14.29742187 1 15 C1.66 15.33 2.32 15.66 3 16 C3.59355614 18.64860427 3.74209269 21.29197322 4 24 C4.61875 23.814375 5.2375 23.62875 5.875 23.4375 C8 23 8 23 10 24 C13.37328752 24.31583446 16.74734365 24.51133762 20.12890625 24.71875 C23 25 23 25 24 26 C24.04080783 27.99958364 24.04254356 30.00045254 24 32 C22 28.25 22 28.25 22 26 C17.71 26 13.42 26 9 26 C8.34 29.3 7.68 32.6 7 36 C6.01 34.68 5.02 33.36 4 32 C2.515 32.495 2.515 32.495 1 33 C0.34 32.67 -0.32 32.34 -1 32 C-0.835 31.38125 -0.67 30.7625 -0.5 30.125 C0.81426991 21.91081306 0.28191184 16.15735628 -4 9 C-4.49886719 7.92878906 -4.49886719 7.92878906 -5.0078125 6.8359375 C-5.86609062 4.82768443 -5.86609062 4.82768443 -8 4 C-7.34 4 -6.68 4 -6 4 C-6 3.34 -6 2.68 -6 2 C-4.02 1.34 -2.04 0.68 0 0 Z " fill="#2B77BD" transform="translate(174,188)"/>
<path d="M0 0 C0.69802734 0.00386719 1.39605469 0.00773438 2.11523438 0.01171875 C2.80939453 0.00785156 3.50355469 0.00398437 4.21875 0 C9.42445449 0.01007881 9.42445449 0.01007881 11.67773438 1.13671875 C11.34773438 3.44671875 11.01773437 5.75671875 10.67773438 8.13671875 C8.36773437 7.80671875 6.05773437 7.47671875 3.67773438 7.13671875 C1.25293701 10.7739148 1.29110861 12.99375357 1.05273438 17.32421875 C0.94058594 19.23267578 0.94058594 19.23267578 0.82617188 21.1796875 C0.7771875 22.15550781 0.72820312 23.13132812 0.67773438 24.13671875 C-1.30226563 24.13671875 -3.28226562 24.13671875 -5.32226562 24.13671875 C-5.51813473 20.32459972 -5.70256128 16.51201341 -5.88476562 12.69921875 C-5.94083984 11.61060547 -5.99691406 10.52199219 -6.0546875 9.40039062 C-6.10302734 8.36591797 -6.15136719 7.33144531 -6.20117188 6.265625 C-6.24830322 5.3072876 -6.29543457 4.3489502 -6.34399414 3.36157227 C-6.3015401 -0.98543482 -3.70635175 0.00718982 0 0 Z " fill="#161616" transform="translate(369.322265625,245.86328125)"/>
<path d="M0 0 C0.53625 0.721875 1.0725 1.44375 1.625 2.1875 C5.80503449 7.13754084 9.67640607 10.34382064 16 12 C14.02 12.99 14.02 12.99 12 14 C12.66 15.32 13.32 16.64 14 18 C14.99 18 15.98 18 17 18 C18.90011695 18.30797843 20.79580768 18.64391674 22.6875 19 C23.68136719 19.185625 24.67523438 19.37125 25.69921875 19.5625 C26.45847656 19.706875 27.21773437 19.85125 28 20 C28 20.33 28 20.66 28 21 C18.8353263 22.65003887 10.55798296 21.7863241 2.75 16.375 C-1.55302222 12.85434545 -4.79341658 8.50925793 -8 4 C-7.67 3.34 -7.34 2.68 -7 2 C-4.69 2.33 -2.38 2.66 0 3 C0 2.01 0 1.02 0 0 Z " fill="#2C7AC0" transform="translate(133,220)"/>
<path d="M0 0 C2.31 0 4.62 0 7 0 C8.05539054 7.65158142 8.36063233 15.27822535 8 23 C7 24 7 24 3.4375 24.0625 C2.303125 24.041875 1.16875 24.02125 0 24 C-1.27491216 21.45017567 -1.02596616 19.83534576 -0.87890625 16.9921875 C-0.83056641 16.00605469 -0.78222656 15.01992187 -0.73242188 14.00390625 C-0.67634766 12.97136719 -0.62027344 11.93882812 -0.5625 10.875 C-0.51029297 9.83472656 -0.45808594 8.79445312 -0.40429688 7.72265625 C-0.27439054 5.14814884 -0.13941748 2.57400704 0 0 Z " fill="#111111" transform="translate(469,205)"/>
<path d="M0 0 C0.33 1.98 0.66 3.96 1 6 C5.62 6 10.24 6 15 6 C15 6.33 15 6.66 15 7 C13.66195312 7.16435547 13.66195312 7.16435547 12.296875 7.33203125 C11.12640625 7.49058594 9.9559375 7.64914063 8.75 7.8125 C7.00976562 8.03873047 7.00976562 8.03873047 5.234375 8.26953125 C1.97898789 9.00474549 0.50832874 9.90013764 -2 12 C-2.66 12 -3.32 12 -4 12 C-4.268125 12.53625 -4.53625 13.0725 -4.8125 13.625 C-5.67132874 15.34265748 -6.59726795 17.02730088 -7.5625 18.6875 C-10.34186595 25.09212588 -10.295718 31.23347267 -9 38 C-11.24245338 36.21940694 -11.95446379 35.18405352 -12.65234375 32.36328125 C-13.32118819 25.20756193 -12.87071678 21.0993113 -9 15 C-9.66 14.67 -10.32 14.34 -11 14 C-9.68 14 -8.36 14 -7 14 C-7.33 12.35 -7.66 10.7 -8 9 C-9.32 9 -10.64 9 -12 9 C-12 8.34 -12 7.68 -12 7 C-9.8828125 5.2734375 -9.8828125 5.2734375 -7.125 3.375 C-6.22007812 2.74335938 -5.31515625 2.11171875 -4.3828125 1.4609375 C-2 0 -2 0 0 0 Z " fill="#337FC5" transform="translate(142,181)"/>
<path d="M0 0 C1.98 0 3.96 0 6 0 C6 7.92 6 15.84 6 24 C4.02 24 2.04 24 0 24 C0 16.08 0 8.16 0 0 Z " fill="#0C0C0C" transform="translate(384,246)"/>
<path d="M0 0 C0.639375 0.2475 1.27875 0.495 1.9375 0.75 C2.89820434 3.63211302 3.04331883 5.44850044 3 8.4375 C2.99097656 9.24574219 2.98195312 10.05398437 2.97265625 10.88671875 C2.96105469 11.50160156 2.94945312 12.11648437 2.9375 12.75 C1.9475 12.42 0.9575 12.09 -0.0625 11.75 C-0.3925 11.09 -0.7225 10.43 -1.0625 9.75 C-1.7225 12.39 -2.3825 15.03 -3.0625 17.75 C-3.3925 17.75 -3.7225 17.75 -4.0625 17.75 C-4.3925 15.77 -4.7225 13.79 -5.0625 11.75 C-9.3525 11.42 -13.6425 11.09 -18.0625 10.75 C-18.0625 10.42 -18.0625 10.09 -18.0625 9.75 C-13.6075 9.255 -13.6075 9.255 -9.0625 8.75 C-10.0525 8.42 -11.0425 8.09 -12.0625 7.75 C-12.0625 6.76 -12.0625 5.77 -12.0625 4.75 C-14.3725 4.75 -16.6825 4.75 -19.0625 4.75 C-19.0625 4.42 -19.0625 4.09 -19.0625 3.75 C-17.12507659 3.72296619 -15.18754521 3.70358875 -13.25 3.6875 C-12.17105469 3.67589844 -11.09210938 3.66429687 -9.98046875 3.65234375 C-7.0625 3.75 -7.0625 3.75 -4.0625 4.75 C-4.0625 3.43 -4.0625 2.11 -4.0625 0.75 C-2.0625 -0.25 -2.0625 -0.25 0 0 Z " fill="#0267C5" transform="translate(202.0625,202.25)"/>
<path d="M0 0 C3.65844986 3.29260487 5.83551416 6.05570351 6.1171875 11.09765625 C6.12412868 13.06547967 6.066668 15.03329398 6 17 C6.99 16.67 7.98 16.34 9 16 C8.67 17.65 8.34 19.3 8 21 C5.25 20.9375 5.25 20.9375 2 20 C-0.66847507 16.84105756 -2.31925736 13.06880661 -3 9 C-1.98481562 1.98481562 -1.98481562 1.98481562 0 0 Z " fill="#136CBC" transform="translate(201,211)"/>
<path d="M0 0 C2.77687664 2.77687664 2.69310559 5.08299515 3.25 8.9375 C3.44078125 10.18402344 3.6315625 11.43054688 3.828125 12.71484375 C4 16 4 16 2 19 C1.31822584 20.32567199 0.64808564 21.65753688 0 23 C-0.99 23 -1.98 23 -3 23 C-4.13790836 14.7732301 -4.77138927 7.15708391 0 0 Z " fill="#026BC6" transform="translate(252,200)"/>
<path d="M0 0 C2.91884528 0.06005854 5.83261639 0.14708616 8.75 0.25 C9.9875 0.27126953 9.9875 0.27126953 11.25 0.29296875 C17.3739662 0.53990287 17.3739662 0.53990287 20.59375 2.90625 C22 5 22 5 21.75 7.25 C21.5025 7.8275 21.255 8.405 21 9 C16.25 8.25 16.25 8.25 14 6 C11.17326263 5.61116804 11.17326263 5.61116804 8 5.5 C2.22222222 5.22222222 2.22222222 5.22222222 0 3 C0 2.01 0 1.02 0 0 Z " fill="#0468C1" transform="translate(219,180)"/>
<path d="M0 0 C0.680625 0.7425 1.36125 1.485 2.0625 2.25 C5.88351433 6.07101433 10.57746872 9.13239499 16 10 C16 10.66 16 11.32 16 12 C13 12 10 12 7 12 C7.33 13.65 7.66 15.3 8 17 C3.40693504 15.5140084 0.56430755 13.14985318 -3 10 C-1 9 -1 9 2 8 C2 7.34 2 6.68 2 6 C1.34 6 0.68 6 0 6 C0 4.02 0 2.04 0 0 Z " fill="#4186C2" transform="translate(207,222)"/>
<path d="M0 0 C5.94 0.33 11.88 0.66 18 1 C19.24546405 3.49092811 18.7767578 4.41080733 18 7 C16.08302063 6.85833643 14.16642277 6.71150416 12.25 6.5625 C11.18265625 6.48128906 10.1153125 6.40007812 9.015625 6.31640625 C8.02046875 6.21199219 7.0253125 6.10757813 6 6 C5.25234375 5.92652344 4.5046875 5.85304687 3.734375 5.77734375 C2 5 2 5 0 0 Z " fill="#0569C1" transform="translate(144,233)"/>
<path d="M0 0 C3.38540224 0.30698862 6.77135062 0.50904595 10.1640625 0.71875 C13 1 13 1 14 2 C14.04080783 3.99958364 14.04254356 6.00045254 14 8 C12 4.25 12 4.25 12 2 C7.71 2 3.42 2 -1 2 C-1.66 5.3 -2.32 8.6 -3 12 C-3.99 10.68 -4.98 9.36 -6 8 C-6.99 8.33 -7.98 8.66 -9 9 C-9.66 8.67 -10.32 8.34 -11 8 C-10.67 6.35 -10.34 4.7 -10 3 C-9.34 3.33 -8.68 3.66 -8 4 C-7.731875 3.360625 -7.46375 2.72125 -7.1875 2.0625 C-5.22591378 -1.34446554 -3.54735467 -1.18245156 0 0 Z " fill="#3882C8" transform="translate(184,212)"/>
<path d="M0 0 C0.33 0 0.66 0 1 0 C3.11161731 9.41002278 3.11161731 9.41002278 4 14 C1.75 14.75 1.75 14.75 -1 15 C-3.3125 13.5625 -3.3125 13.5625 -5 11 C-5.33107933 8.24100561 -5.18642023 5.79630351 -5 3 C-3.68 3.33 -2.36 3.66 -1 4 C-1.33 4.66 -1.66 5.32 -2 6 C-1.34 6 -0.68 6 0 6 C0 4.02 0 2.04 0 0 Z " fill="#0965BB" transform="translate(129,209)"/>
<path d="M0 0 C3.96 0 7.92 0 12 0 C11.67 0.99 11.34 1.98 11 3 C14.465 4.485 14.465 4.485 18 6 C14.33012779 7.22329074 11.66032178 6.88021006 7.8125 6.5625 C6.54019531 6.46066406 5.26789063 6.35882813 3.95703125 6.25390625 C2.49330078 6.12822266 2.49330078 6.12822266 1 6 C0.67 4.02 0.34 2.04 0 0 Z " fill="#0665BC" transform="translate(142,181)"/>
<path d="M0 0 C0.99 0.33 1.98 0.66 3 1 C2.67 2.32 2.34 3.64 2 5 C0.35 5.33 -1.3 5.66 -3 6 C-2.67 7.32 -2.34 8.64 -2 10 C-0.68 10.33 0.64 10.66 2 11 C0.02 12.32 -1.96 13.64 -4 15 C-5.32 14.34 -6.64 13.68 -8 13 C-7.34 13 -6.68 13 -6 13 C-6.27617533 11.05925139 -6.27617533 11.05925139 -7 9 C-7.99 8.34 -8.98 7.68 -10 7 C-9.0925 6.5875 -8.185 6.175 -7.25 5.75 C-4.20334382 4.10949282 -2.28873194 2.55281639 0 0 Z " fill="#3279BC" transform="translate(243,224)"/>
<path d="M0 0 C0.99 0 1.98 0 3 0 C3 0.66 3 1.32 3 2 C4.10408203 1.87431641 4.10408203 1.87431641 5.23046875 1.74609375 C6.69419922 1.59333984 6.69419922 1.59333984 8.1875 1.4375 C9.15042969 1.33308594 10.11335937 1.22867188 11.10546875 1.12109375 C13.94233377 1.00241249 16.25423671 1.32234361 19 2 C18.67 2.66 18.34 3.32 18 4 C16.02 4 14.04 4 12 4 C11.67 4.99 11.34 5.98 11 7 C8.36 7 5.72 7 3 7 C2.67 5.35 2.34 3.7 2 2 C1.34 2 0.68 2 0 2 C0 1.34 0 0.68 0 0 Z " fill="#0A65BB" transform="translate(212,232)"/>
<path d="M0 0 C0.66 1.65 1.32 3.3 2 5 C2.33 5 2.66 5 3 5 C3 6.98 3 8.96 3 11 C3.99 10.67 4.98 10.34 6 10 C5.67 11.65 5.34 13.3 5 15 C2.64453125 14.83984375 2.64453125 14.83984375 0 14 C-1.36328125 11.56640625 -1.36328125 11.56640625 -2.3125 8.5625 C-2.80169922 7.07943359 -2.80169922 7.07943359 -3.30078125 5.56640625 C-4 3 -4 3 -4 1 C-2 0 -2 0 0 0 Z " fill="#0369C5" transform="translate(204,217)"/>
<path d="M0 0 C4 1 4 1 6 2 C6 5.3 6 8.6 6 12 C5.34 12 4.68 12 4 12 C4 11.34 4 10.68 4 10 C3.01 9.67 2.02 9.34 1 9 C0.67 10.32 0.34 11.64 0 13 C0 8.71 0 4.42 0 0 Z " fill="#287CC7" transform="translate(123,203)"/>
<path d="M0 0 C1.32 0 2.64 0 4 0 C4.20753906 0.6496875 4.41507813 1.299375 4.62890625 1.96875 C5.08136719 2.6390625 5.53382813 3.309375 6 4 C8.78499906 4.55568806 8.78499906 4.55568806 11.9375 4.5 C15.15234375 4.53125 15.15234375 4.53125 18 5 C19.87890625 7.03125 19.87890625 7.03125 21 9 C18.54126232 8.85941524 16.08314825 8.71277001 13.625 8.5625 C12.92632812 8.52318359 12.22765625 8.48386719 11.5078125 8.44335938 C6.2265625 8.11328125 6.2265625 8.11328125 4 7 C3.375 4.4375 3.375 4.4375 3 2 C1.35 2 -0.3 2 -2 2 C-1.34 1.34 -0.68 0.68 0 0 Z " fill="#2A73BA" transform="translate(215,180)"/>
<path d="M0 0 C1.65 0 3.3 0 5 0 C5.75 1.625 5.75 1.625 6 4 C3.69205104 8.26082886 1.09226496 11.37675323 -3 14 C-3.99 13.67 -4.98 13.34 -6 13 C-6 12.01 -6 11.02 -6 10 C-5.34 10 -4.68 10 -4 10 C-3.67 9.34 -3.34 8.68 -3 8 C-2.34 8.33 -1.68 8.66 -1 9 C-0.34 7.35 0.32 5.7 1 4 C1.66 4 2.32 4 3 4 C2.01 2.68 1.02 1.36 0 0 Z " fill="#2B77C1" transform="translate(174,222)"/>
<path d="M0 0 C1.125 1.6875 1.125 1.6875 2 4 C1.08326247 7.13218656 -0.18017929 9.27026894 -2 12 C-2.66 11.67 -3.32 11.34 -4 11 C-4 10.34 -4 9.68 -4 9 C-4.66 8.67 -5.32 8.34 -6 8 C-5.34 7.01 -4.68 6.02 -4 5 C-3.34 5 -2.68 5 -2 5 C-2 4.01 -2 3.02 -2 2 C-1.34 2 -0.68 2 0 2 C0 1.34 0 0.68 0 0 Z M-9 7 C-8.67 7.66 -8.34 8.32 -8 9 C-7.34 9.33 -6.68 9.66 -6 10 C-6.66 10 -7.32 10 -8 10 C-8 11.32 -8 12.64 -8 14 C-9.65 13.67 -11.3 13.34 -13 13 C-12.01 12.34 -11.02 11.68 -10 11 C-9.27617533 8.94074861 -9.27617533 8.94074861 -9 7 Z " fill="#317FCB" transform="translate(206,193)"/>
<path d="M0 0 C2.77687664 2.77687664 2.69310559 5.08299515 3.25 8.9375 C3.44078125 10.18402344 3.6315625 11.43054688 3.828125 12.71484375 C4 16 4 16 2 19 C1.67 14.71 1.34 10.42 1 6 C0.67 7.65 0.34 9.3 0 11 C-0.66 11.66 -1.32 12.32 -2 13 C-2.64767793 15.57061311 -2.64767793 15.57061311 -3 18 C-3.33 18 -3.66 18 -4 18 C-3.65226572 11.36906706 -3.03910346 5.946072 0 0 Z " fill="#0861B7" transform="translate(252,200)"/>
<path d="M0 0 C1.0725 0.165 2.145 0.33 3.25 0.5 C7.03028752 1.08810915 7.03028752 1.08810915 11 1 C13.2588589 1.4583192 15.50875801 1.96210192 17.75 2.5 C19.50570312 2.91765625 19.50570312 2.91765625 21.296875 3.34375 C22.18890625 3.5603125 23.0809375 3.776875 24 4 C24 4.33 24 4.66 24 5 C16.5212115 6.34650639 10.07397769 5.96612709 3 3 C1.18359375 1.390625 1.18359375 1.390625 0 0 Z " fill="#4A87BB" transform="translate(137,236)"/>
<path d="M0 0 C0.625 1.8125 0.625 1.8125 1 4 C0.01 5.485 0.01 5.485 -1 7 C-3.5 7.3125 -3.5 7.3125 -6 7 C-6.66 6.34 -7.32 5.68 -8 5 C-7.75 2.4375 -7.75 2.4375 -7 0 C-4.3333581 -1.33332095 -2.83319697 -0.67102033 0 0 Z " fill="#1A1A1A" transform="translate(476,196)"/>
<path d="M0 0 C2.375 -0.125 2.375 -0.125 5 0 C5.66 0.66 6.32 1.32 7 2 C6.625 4.625 6.625 4.625 6 7 C1.25 8.125 1.25 8.125 -1 7 C-0.67 4.69 -0.34 2.38 0 0 Z " fill="#212121" transform="translate(384,237)"/>
<path d="M0 0 C2.8203125 0.4609375 2.8203125 0.4609375 6.125 1.375 C7.22070312 1.67148438 8.31640625 1.96796875 9.4453125 2.2734375 C10.28835937 2.51320312 11.13140625 2.75296875 12 3 C4.75974853 6.96993564 -2.29075585 6.20524478 -10 4 C-10 3.67 -10 3.34 -10 3 C-8.72125 2.87625 -7.4425 2.7525 -6.125 2.625 C-2.65209064 2.30957601 -2.65209064 2.30957601 0 0 Z " fill="#3C84C2" transform="translate(225,236)"/>
<path d="M0 0 C1.98 0 3.96 0 6 0 C5.360625 1.134375 4.72125 2.26875 4.0625 3.4375 C0.68434693 10.21776467 0.59743052 16.67547052 2 24 C-0.24245338 22.21940694 -0.95446379 21.18405352 -1.65234375 18.36328125 C-2.32118819 11.20756193 -1.87071678 7.0993113 2 1 C1.34 0.67 0.68 0.34 0 0 Z " fill="#4B88C3" transform="translate(131,195)"/>
<path d="M0 0 C0.66 0 1.32 0 2 0 C2.33 2.97 2.66 5.94 3 9 C2.01 8.67 1.02 8.34 0 8 C-1.22393475 5.04215769 -0.96516243 3.00272755 0 0 Z M-4 4 C-3.01 4.66 -2.02 5.32 -1 6 C-1.66 8.64 -2.32 11.28 -3 14 C-3.33 14 -3.66 14 -4 14 C-4.33 12.02 -4.66 10.04 -5 8 C-9.29 7.67 -13.58 7.34 -18 7 C-18 6.67 -18 6.34 -18 6 C-17.24074219 5.93941406 -16.48148438 5.87882813 -15.69921875 5.81640625 C-14.70535156 5.73261719 -13.71148437 5.64882812 -12.6875 5.5625 C-11.70136719 5.48128906 -10.71523437 5.40007812 -9.69921875 5.31640625 C-6.90624401 5.08187441 -6.90624401 5.08187441 -4 4 Z " fill="#0B5FB4" transform="translate(202,206)"/>
<path d="M0 0 C4.9962796 4.16356634 7.04953742 8.84351198 9 15 C9 15.66 9 16.32 9 17 C11.97 17 14.94 17 18 17 C18 17.33 18 17.66 18 18 C16.37585622 18.19477739 14.75063577 18.38059458 13.125 18.5625 C12.22007812 18.66691406 11.31515625 18.77132812 10.3828125 18.87890625 C8 19 8 19 6 18 C5.4375 16.00390625 5.4375 16.00390625 5 13.5625 C4.37748838 9.86159602 4.37748838 9.86159602 2 7 C1.28072705 4.68234271 0.6090107 2.34904126 0 0 Z " fill="#6AA0CD" transform="translate(174,188)"/>
<path d="M0 0 C0.66 0.66 1.32 1.32 2 2 C1.625 4.125 1.625 4.125 1 6 C1 5.34 1 4.68 1 4 C0.01 4.33 -0.98 4.66 -2 5 C-1.67 5.99 -1.34 6.98 -1 8 C-1.66 8 -2.32 8 -3 8 C-3.66 9.65 -4.32 11.3 -5 13 C-5.99 12.67 -6.98 12.34 -8 12 C-7.01 8.7 -6.02 5.4 -5 2 C-3.68 2 -2.36 2 -1 2 C-0.67 1.34 -0.34 0.68 0 0 Z " fill="#0665BD" transform="translate(178,218)"/>
<path d="M0 0 C0.66 0 1.32 0 2 0 C2 0.66 2 1.32 2 2 C2.99 2 3.98 2 5 2 C4.67 2.66 4.34 3.32 4 4 C4.33 4.33 4.66 4.66 5 5 C5.36442233 6.66014616 5.69972883 8.32706064 6 10 C1.40693504 8.5140084 -1.43569245 6.14985318 -5 3 C-3 2 -3 2 0 1 C0 0.67 0 0.34 0 0 Z " fill="#307CC3" transform="translate(209,229)"/>
<path d="M0 0 C2.0625 1.75 2.0625 1.75 4 4 C3.75 6.25 3.75 6.25 3 8 C2.34 8 1.68 8 1 8 C0.67 7.34 0.34 6.68 0 6 C-0.66 6 -1.32 6 -2 6 C-2 6.99 -2 7.98 -2 9 C-2.66 9 -3.32 9 -4 9 C-4.66 10.32 -5.32 11.64 -6 13 C-6.66 13 -7.32 13 -8 13 C-8 12.34 -8 11.68 -8 11 C-7.34 10.67 -6.68 10.34 -6 10 C-5.67 9.175 -5.34 8.35 -5 7.5 C-4 5 -4 5 -2 4 C-0.86649466 1.98330173 -0.86649466 1.98330173 0 0 Z " fill="#1C74C3" transform="translate(206,189)"/>
<path d="M0 0 C2.64 0.33 5.28 0.66 8 1 C8.33 1.99 8.66 2.98 9 4 C8.01 4 7.02 4 6 4 C6 5.32 6 6.64 6 8 C7.32 8.66 8.64 9.32 10 10 C9.34 10.66 8.68 11.32 8 12 C1.48063781 4.88610478 1.48063781 4.88610478 0 0 Z " fill="#2F78BD" transform="translate(125,222)"/>
<path d="M0 0 C17.17270075 -0.46482498 17.17270075 -0.46482498 22.4375 4.125 C22.953125 4.74375 23.46875 5.3625 24 6 C21.0625 5.625 21.0625 5.625 18 5 C17.67 4.34 17.34 3.68 17 3 C14.12817413 2.52381188 11.32879853 2.15832403 8.4375 1.875 C7.22803711 1.74544922 7.22803711 1.74544922 5.99414062 1.61328125 C3.99695936 1.40056372 1.99857263 1.19922145 0 1 C0 0.67 0 0.34 0 0 Z " fill="#548CBE" transform="translate(220,179)"/>
<path d="M0 0 C2 0.25 2 0.25 4 1 C4.33 1.99 4.66 2.98 5 4 C4.67 4.66 4.34 5.32 4 6 C2.68 6 1.36 6 0 6 C-0.38218767 4.34385343 -0.71395102 2.67542976 -1 1 C-0.67 0.67 -0.34 0.34 0 0 Z M-2 5 C-0.02 5.99 -0.02 5.99 2 7 C1.67 7.99 1.34 8.98 1 10 C0.01 10 -0.98 10 -2 10 C-2 8.35 -2 6.7 -2 5 Z " fill="#0668C3" transform="translate(131,189)"/>
<path d="M0 0 C0 3.69418201 -1.28179295 5.77836178 -3 9 C-3.66 9 -4.32 9 -5 9 C-5.66 10.98 -6.32 12.96 -7 15 C-7.66 15 -8.32 15 -9 15 C-7.76372623 8.40653991 -4.61935701 4.75522045 0 0 Z " fill="#3D7DBA" transform="translate(207,185)"/>
<path d="M0 0 C2 2 2 2 2 5 C2.66 5.33 3.32 5.66 4 6 C0.33333333 6 -3.33333333 6 -7 6 C-7 5.01 -7 4.02 -7 3 C-4.69 2.01 -2.38 1.02 0 0 Z " fill="#0468C3" transform="translate(217,182)"/>
<path d="M0 0 C1.75570312 0.01353516 1.75570312 0.01353516 3.546875 0.02734375 C4.43890625 0.03894531 5.3309375 0.05054688 6.25 0.0625 C6.25 0.7225 6.25 1.3825 6.25 2.0625 C4.16814549 2.28512606 2.08439574 2.49007926 0 2.6875 C-1.16015625 2.80351562 -2.3203125 2.91953125 -3.515625 3.0390625 C-6.68872091 3.06205595 -8.13317244 2.75955154 -10.75 1.0625 C-7.14006828 -0.07230527 -3.7657673 -0.03765767 0 0 Z " fill="#3479B3" transform="translate(152.75,178.9375)"/>
<path d="M0 0 C0 1.98 0 3.96 0 6 C-2.375 6.625 -2.375 6.625 -5 7 C-5.66 6.34 -6.32 5.68 -7 5 C-6.67 4.01 -6.34 3.02 -6 2 C-1.78947368 0 -1.78947368 0 0 0 Z " fill="#0869C2" transform="translate(246,228)"/>
<path d="M0 0 C2.475 0.495 2.475 0.495 5 1 C5.625 2.875 5.625 2.875 6 5 C5.34 5.66 4.68 6.32 4 7 C2 5.75 2 5.75 0 4 C0 2.68 0 1.36 0 0 Z " fill="#026AC6" transform="translate(131,226)"/>
<path d="M0 0 C1.65 0 3.3 0 5 0 C5.75 1.625 5.75 1.625 6 4 C4.125 7.25 4.125 7.25 2 10 C1.67 10 1.34 10 1 10 C1 8.02 1 6.04 1 4 C1.66 4 2.32 4 3 4 C2.01 2.68 1.02 1.36 0 0 Z " fill="#3C84C6" transform="translate(174,222)"/>
<path d="M0 0 C0.99 0 1.98 0 3 0 C6.07692308 6.4 6.07692308 6.4 5.6875 9.4375 C5.460625 9.953125 5.23375 10.46875 5 11 C0.57142857 3.57142857 0.57142857 3.57142857 0 0 Z " fill="#3D7CBE" transform="translate(198,220)"/>
<path d="M0 0 C0.33 0.66 0.66 1.32 1 2 C1.99 2.33 2.98 2.66 4 3 C3.67 4.65 3.34 6.3 3 8 C2.01 7.67 1.02 7.34 0 7 C-0.38133299 5.0085944 -0.71325582 3.00720923 -1 1 C-0.67 0.67 -0.34 0.34 0 0 Z " fill="#026BC7" transform="translate(174,193)"/>
<path d="M0 0 C4.29 0.99 8.58 1.98 13 3 C13 3.33 13 3.66 13 4 C9.7 4.33 6.4 4.66 3 5 C3 4.34 3 3.68 3 3 C2.01 2.67 1.02 2.34 0 2 C0 1.34 0 0.68 0 0 Z " fill="#4990C4" transform="translate(148,237)"/>
<path d="M0 0 C0.99 0 1.98 0 3 0 C3 0.66 3 1.32 3 2 C5.64 2 8.28 2 11 2 C8.64031256 4.09749995 7.45383006 4.96905704 4.25 5.1875 C3.13625 5.0946875 3.13625 5.0946875 2 5 C2 4.01 2 3.02 2 2 C1.34 2 0.68 2 0 2 C0 1.34 0 0.68 0 0 Z " fill="#026BC5" transform="translate(212,232)"/>
<path d="M0 0 C1.32 0.66 2.64 1.32 4 2 C3.67 3.65 3.34 5.3 3 7 C1.35 7 -0.3 7 -2 7 C-1.34 4.69 -0.68 2.38 0 0 Z " fill="#0F6CC3" transform="translate(248,191)"/>
<path d="M0 0 C1.95803507 -0.05389087 3.91648909 -0.09274217 5.875 -0.125 C7.51082031 -0.15980469 7.51082031 -0.15980469 9.1796875 -0.1953125 C12 0 12 0 14 2 C11.69 2.66 9.38 3.32 7 4 C7 3.01 7 2.02 7 1 C4.69 1 2.38 1 0 1 C0 0.67 0 0.34 0 0 Z " fill="#0759AC" transform="translate(183,206)"/>
<path d="M0 0 C1.32 0 2.64 0 4 0 C4 0.66 4 1.32 4 2 C3.01 2 2.02 2 1 2 C1 3.32 1 4.64 1 6 C0.01 6.33 -0.98 6.66 -2 7 C-2.99 6.01 -3.98 5.02 -5 4 C-3.68 4 -2.36 4 -1 4 C-0.67 2.68 -0.34 1.36 0 0 Z " fill="#1F72BD" transform="translate(241,185)"/>
<path d="M0 0 C1.125 1.6875 1.125 1.6875 2 4 C1.08326247 7.13218656 -0.18017929 9.27026894 -2 12 C-2 8.7 -2 5.4 -2 2 C-1.34 2 -0.68 2 0 2 C0 1.34 0 0.68 0 0 Z " fill="#2C79C0" transform="translate(206,193)"/>
<path d="M0 0 C-0.99 0.33 -1.98 0.66 -3 1 C-3 1.66 -3 2.32 -3 3 C-6.3 2.67 -9.6 2.34 -13 2 C-13 1.67 -13 1.34 -13 1 C-11.20994059 0.63779734 -9.41787943 0.28547531 -7.625 -0.0625 C-6.12839844 -0.35833984 -6.12839844 -0.35833984 -4.6015625 -0.66015625 C-2 -1 -2 -1 0 0 Z " fill="#4A88C5" transform="translate(163,232)"/>
<path d="M0 0 C2.97 0.495 2.97 0.495 6 1 C4.02 1.99 4.02 1.99 2 3 C2.33 4.32 2.66 5.64 3 7 C1.68 6.34 0.36 5.68 -1 5 C-0.67 3.35 -0.34 1.7 0 0 Z " fill="#3685CB" transform="translate(143,231)"/>
<path d="M0 0 C0.33 0.66 0.66 1.32 1 2 C2.32 2.33 3.64 2.66 5 3 C1.04 4.98 1.04 4.98 -3 7 C-3.33 5.68 -3.66 4.36 -4 3 C-3.01 3 -2.02 3 -1 3 C-0.67 2.01 -0.34 1.02 0 0 Z " fill="#4D8BCC" transform="translate(215,186)"/>
<path d="M0 0 C3.93673644 1.31224548 6.22719294 2.91910327 9 6 C4.545 5.01 4.545 5.01 0 4 C0 2.68 0 1.36 0 0 Z " fill="#5792C7" transform="translate(164,181)"/>
<path d="M0 0 C1.32 0.33 2.64 0.66 4 1 C4 2.98 4 4.96 4 7 C2.68 7 1.36 7 0 7 C0.2784375 6.1028125 0.2784375 6.1028125 0.5625 5.1875 C1.22093687 2.83591238 1.22093687 2.83591238 0 0 Z " fill="#0962B6" transform="translate(233,232)"/>
<path d="M0 0 C0.6875 1.6875 0.6875 1.6875 1 4 C-0.4375 6.75 -0.4375 6.75 -2 9 C-3.32 8.67 -4.64 8.34 -6 8 C-5.195625 7.236875 -4.39125 6.47375 -3.5625 5.6875 C-0.83200976 3.20569102 -0.83200976 3.20569102 0 0 Z " fill="#4F8DC3" transform="translate(172,220)"/>
<path d="M0 0 C2.625 0.375 2.625 0.375 5 1 C3.71034824 2.37562854 2.37310707 3.70766393 1 5 C0.34 5 -0.32 5 -1 5 C-1.33 5.66 -1.66 6.32 -2 7 C-2.125 4.625 -2.125 4.625 -2 2 C-1.34 1.34 -0.68 0.68 0 0 Z " fill="#4587C5" transform="translate(139,188)"/>
<path d="M0 0 C2.31 0 4.62 0 7 0 C4.82575883 2.50037734 3.26954202 3.43628586 0 4 C-0.33 3.34 -0.66 2.68 -1 2 C-0.67 1.34 -0.34 0.68 0 0 Z " fill="#3E80C1" transform="translate(162,236)"/>
<path d="M0 0 C0.33 1.32 0.66 2.64 1 4 C-2.75 5.125 -2.75 5.125 -5 4 C-5 3.01 -5 2.02 -5 1 C-3.35 0.67 -1.7 0.34 0 0 Z " fill="#0664BC" transform="translate(209,227)"/>
<path d="M0 0 C0.66 0 1.32 0 2 0 C2.625 1.8125 2.625 1.8125 3 4 C2.01 5.485 2.01 5.485 1 7 C0.01 6.67 -0.98 6.34 -2 6 C-1.34 4.02 -0.68 2.04 0 0 Z " fill="#026CC8" transform="translate(172,224)"/>
<path d="M0 0 C3.3125 -0.25 3.3125 -0.25 7 0 C8.9375 2 8.9375 2 10 4 C8.72125 3.896875 7.4425 3.79375 6.125 3.6875 C5.04605469 3.60048828 5.04605469 3.60048828 3.9453125 3.51171875 C2 3 2 3 0 0 Z " fill="#458BC6" transform="translate(226,185)"/>
<path d="M0 0 C0.66 0.33 1.32 0.66 2 1 C1.34 2.65 0.68 4.3 0 6 C-0.99 6 -1.98 6 -3 6 C-3 4.68 -3 3.36 -3 2 C-2.01 2 -1.02 2 0 2 C0 1.34 0 0.68 0 0 Z " fill="#257BCB" transform="translate(245,185)"/>
<path d="M0 0 C2.475 0.99 2.475 0.99 5 2 C4.67 2.66 4.34 3.32 4 4 C2.35 4 0.7 4 -1 4 C-1 4.66 -1 5.32 -1 6 C-1.66 5.67 -2.32 5.34 -3 5 C-2.01 3.35 -1.02 1.7 0 0 Z " fill="#0963B3" transform="translate(169,186)"/>
<path d="M0 0 C1.65 0 3.3 0 5 0 C5 1.32 5 2.64 5 4 C3.02 4 1.04 4 -1 4 C-0.67 2.68 -0.34 1.36 0 0 Z " fill="#0965B4" transform="translate(157,236)"/>
<path d="M0 0 C0.66 0 1.32 0 2 0 C2 1.32 2 2.64 2 4 C1.34 4 0.68 4 0 4 C-0.66 5.32 -1.32 6.64 -2 8 C-2.66 8 -3.32 8 -4 8 C-4 7.34 -4 6.68 -4 6 C-3.34 5.67 -2.68 5.34 -2 5 C-1.27840576 3.35636866 -0.60648579 1.68949614 0 0 Z " fill="#0468BD" transform="translate(202,194)"/>
<path d="M0 0 C0.33 0.66 0.66 1.32 1 2 C1.66 2.33 2.32 2.66 3 3 C1.68 4.32 0.36 5.64 -1 7 C-1.66 6.34 -2.32 5.68 -3 5 C-2.01 3.35 -1.02 1.7 0 0 Z " fill="#2D7BBF" transform="translate(129,190)"/>
<path d="M0 0 C0.99 0.33 1.98 0.66 3 1 C1.37660195 2.70884005 -0.29319053 4.37446717 -2 6 C-2.66 6 -3.32 6 -4 6 C-2.84826645 3.53199953 -1.95216435 1.95216435 0 0 Z " fill="#4D4D4D" transform="translate(337,247)"/>
<path d="M0 0 C0.66 1.32 1.32 2.64 2 4 C0.02 4.99 0.02 4.99 -2 6 C-2 5.34 -2 4.68 -2 4 C-2.99 3.34 -3.98 2.68 -5 2 C-3.35 1.34 -1.7 0.68 0 0 Z " fill="#3781C6" transform="translate(238,229)"/>
<path d="M0 0 C0.99 0.33 1.98 0.66 3 1 C3 3.31 3 5.62 3 8 C2.34 8 1.68 8 1 8 C0.67 5.36 0.34 2.72 0 0 Z " fill="#0564B8" transform="translate(124,203)"/>
<path d="M0 0 C0.99 0.33 1.98 0.66 3 1 C2.67 2.65 2.34 4.3 2 6 C0.68 5.34 -0.64 4.68 -2 4 C-2 3.34 -2 2.68 -2 2 C-1.34 2 -0.68 2 0 2 C0 1.34 0 0.68 0 0 Z " fill="#2470BD" transform="translate(164,186)"/>
<path d="M0 0 C0 0.99 0 1.98 0 3 C-2.49529367 5.31705841 -4.65980694 6.40353695 -8 7 C-5.4837822 4.39391727 -2.94865641 2.10618315 0 0 Z " fill="#616161" transform="translate(136,125)"/>
</svg>
